<?xml version="1.0" encoding="UTF-8" standalone="no"?>
<!-- Created with Inkscape (http://www.inkscape.org/) -->

<svg
   width="172mm"
   height="15mm"
   viewBox="0 0 172 15"
   version="1.1"
   id="svg5"
   xml:space="preserve"
   inkscape:version="1.2.2 (b0a8486541, 2022-12-01)"
   sodipodi:docname="mit.svg"
   xmlns:inkscape="http://www.inkscape.org/namespaces/inkscape"
   xmlns:sodipodi="http://sodipodi.sourceforge.net/DTD/sodipodi-0.dtd"
   xmlns="http://www.w3.org/2000/svg"
   xmlns:svg="http://www.w3.org/2000/svg"><sodipodi:namedview
     id="namedview7"
     pagecolor="#ffffff"
     bordercolor="#000000"
     borderopacity="0.25"
     inkscape:showpageshadow="2"
     inkscape:pageopacity="0.0"
     inkscape:pagecheckerboard="0"
     inkscape:deskcolor="#d1d1d1"
     inkscape:document-units="mm"
     showgrid="false"
     showguides="true"
     inkscape:zoom="1.0935553"
     inkscape:cx="391.38395"
     inkscape:cy="119.33553"
     inkscape:window-width="1854"
     inkscape:window-height="1011"
     inkscape:window-x="66"
     inkscape:window-y="32"
     inkscape:window-maximized="1"
     inkscape:current-layer="layer1"><sodipodi:guide
       position="83.321859,-130.53162"
       orientation="0,-1"
       id="guide1594"
       inkscape:locked="false" /><sodipodi:guide
       position="63.632277,-146.98406"
       orientation="0,-1"
       id="guide1596"
       inkscape:locked="false" /></sodipodi:namedview><defs
     id="defs2" /><g
     inkscape:label="Camada 1"
     inkscape:groupmode="layer"
     id="layer1"><path
       style="fill:#000000;stroke-width:0.117132"
       d="m 70.985418,14.217033 c -0.22861,-0.228613 -0.23426,-0.390436 -0.23426,-6.7090241 0,-5.6705861 0.0226,-6.5070899 0.18234,-6.73508795 0.16176,-0.23094549 0.28482,-0.26032738 1.09037,-0.26032738 1.41797,0 1.35614,-0.12385193 1.39862,2.80153633 l 0.0358,2.4694006 h 1.10618 1.10618 v -2.401205 c 0,-2.92424295 -0.0256,-2.86973193 1.34702,-2.86973193 1.47292,0 1.34702,-0.65517648 1.34702,7.00976523 0,7.6067172 0.12761,6.9289382 -1.30457,6.9289382 -1.4093,0 -1.32491,0.216578 -1.36556,-3.504369 l -0.0347,-3.1721495 h -1.10737 -1.10738 v 3.1039955 c 0,3.726809 0.0582,3.572523 -1.34701,3.572523 -0.72232,0 -0.92014,-0.04169 -1.11276,-0.234264 z m 11.64774,0.06813 c -0.21563,-0.157562 -0.22913,-0.360582 -0.26135,-3.93201 -0.0373,-4.130147 0.0326,-4.7487751 0.64148,-5.6823594 0.67547,-1.0356421 3.12423,-4.28059308 3.20702,-4.24974589 0.11908,0.0443802 2.36998,3.11949059 2.98209,4.07404399 0.26852,0.4187488 0.549,0.940532 0.62331,1.1595192 0.0916,0.2700793 0.13509,1.6865573 0.13509,4.4035691 0,4.713296 0.0961,4.393127 -1.3186,4.393127 -1.30835,0 -1.25831,0.112155 -1.25831,-2.819533 V 9.1803679 h -1.17131 -1.17132 v 2.4416191 c 0,2.925371 0.0443,2.829318 -1.30458,2.829318 -0.57145,0 -0.95522,-0.05777 -1.10352,-0.166144 z m 4.65763,-7.787665 c -0.0352,-0.6442877 -0.40963,-1.5657707 -0.85838,-2.1122789 l -0.23449,-0.285566 -0.28303,0.3441361 c -0.54381,0.6612061 -0.87363,1.4647237 -0.87363,2.1283551 v 0.6254662 l 1.14204,-0.033517 1.14203,-0.033517 z m 7.02995,7.771471 c -0.21408,-0.149949 -0.26033,-0.29413 -0.26033,-0.81156 0,-0.703253 0.19244,-0.997342 0.6526,-0.997342 h 0.28446 V 7.4819534 2.5038501 h -0.27467 c -0.43357,0 -0.66239,-0.3509573 -0.66239,-1.0159783 0,-0.99498405 0.0228,-1.00238637 2.94878,-0.9561619 2.36303,0.0373063 2.52113,0.0538963 2.92891,0.30749504 0.548372,0.34099496 1.101252,0.96929916 1.325772,1.50661966 0.52456,1.2554545 0.42921,2.9036023 -0.23689,4.0946929 -0.22394,0.4004577 -0.40717,0.8398386 -0.40717,0.9763983 0,0.1365596 0.16493,0.675977 0.36652,1.1987119 0.59835,1.5515973 0.68477,2.0246553 0.68627,3.7565873 0.002,2.018507 -0.0368,2.07909 -1.32324,2.07909 -1.335442,0 -1.299592,0.06476 -1.371712,-2.479296 -0.0541,-1.908542 -0.0906,-2.2125594 -0.32786,-2.7330794 -0.30612,-0.6715559 -0.74159,-1.3450403 -0.87044,-1.3462109 -0.0483,-4.463e-4 -0.0879,1.3878289 -0.0879,3.0850393 0,2.840754 -0.017,3.101242 -0.2142,3.279697 -0.30253,0.273777 -2.76927,0.28277 -3.15656,0.01154 z m 4.63359,-10.0575401 c 0.0369,-1.6955428 0.0336,-1.7029114 -0.76502,-1.7057831 l -0.49781,-0.00168 v 1.6459667 1.6459666 l 0.61494,-0.035369 0.61495,-0.035369 z m 6.950062,10.0192571 c -0.18424,-0.184233 -0.24791,-0.39367 -0.24791,-0.815408 0,-0.648869 0.23773,-0.955211 0.74129,-0.955211 h 0.31289 V 7.4819534 2.5038501 h -0.34475 c -0.22348,0 -0.4089,-0.091582 -0.52709,-0.2603274 -0.2373,-0.3387801 -0.23358,-1.1371186 0.007,-1.48043781 0.18642,-0.2661465 0.21744,-0.26959081 2.07909,-0.23104656 1.79283,0.0371379 1.92415,0.0560016 2.55782,0.36714305 0.83479,0.40994002 1.55715,1.20134782 2.12201,2.32484072 0.57398,1.1416661 0.66542,1.7267353 0.66542,4.2579313 0,2.5034226 -0.0919,3.1070606 -0.64439,4.2337036 -0.53728,1.09561 -1.30499,1.93784 -2.13773,2.345262 -0.62042,0.303537 -0.77971,0.327184 -2.49914,0.370941 -1.7466,0.04446 -1.84863,0.03461 -2.0844,-0.201176 z m 3.88637,-2.326996 c 0.74768,-1.207993 0.78526,-1.419628 0.78526,-4.4217346 0,-2.5855049 -0.0169,-2.807726 -0.2567,-3.3751105 -0.32614,-0.7716766 -0.76646,-1.4858611 -0.91609,-1.4858611 -0.0743,0 -0.11567,1.7395778 -0.11567,4.8609716 0,3.1213936 0.0414,4.8609806 0.11567,4.8609806 0.0636,0 0.238,-0.197665 0.38753,-0.439246 z m 19.4353,2.365279 -0.26033,-0.182346 V 7.4934653 c 0,-6.2385854 0.0115,-6.60358103 0.2142,-6.78700518 0.29851,-0.27015503 0.9297,-0.24171633 1.54725,0.0697283 0.47982,0.24196058 1.0279,0.83764908 2.22104,2.41395478 l 0.29282,0.3868742 0.97967,-1.2491807 c 0.53881,-0.6870511 1.14325,-1.3486699 1.34319,-1.47026492 0.54473,-0.33126835 1.30333,-0.41346857 1.65985,-0.17987037 l 0.29261,0.19173597 V 7.466534 c 0,7.676125 0.13051,6.984805 -1.31859,6.984805 -0.65308,0 -0.9392,-0.04901 -1.07425,-0.184064 -0.15999,-0.159988 -0.18406,-0.696197 -0.18406,-4.09962 0,-2.2614369 -0.0448,-3.9155554 -0.10612,-3.9155554 -0.0584,0 -0.18994,0.2460027 -0.2924,0.5466681 -0.2894,0.8493715 -0.45811,0.976053 -1.2999,0.976053 -0.84177,0 -1.01049,-0.1266815 -1.2999,-0.976053 -0.10244,-0.3006654 -0.23402,-0.5466681 -0.29239,-0.5466681 -0.0613,0 -0.10611,1.6793992 -0.10611,3.9783694 0,4.588661 0.10932,4.22087 -1.25469,4.22087 -0.53591,0 -0.88785,-0.06046 -1.06189,-0.182338 z m 13.45856,0.04741 c -0.21831,-0.06282 -0.67402,-0.392272 -1.01717,-0.735406 -1.01384,-1.013839 -1.04709,-1.207571 -1.04709,-6.0990533 0,-4.9001811 0.0382,-5.1235053 1.04151,-6.1005015 0.43946,-0.42790265 0.76412,-0.63376954 1.15453,-0.7320797 0.63679,-0.16034139 2.41198,-0.17629974 3.0533,-0.0274534 0.63756,0.14798736 1.33547,0.670899 1.67996,1.2587221 0.59681,1.0183783 0.64234,1.4664247 0.6032,5.9353767 -0.0354,4.0359461 -0.0415,4.1289591 -0.3122,4.7276371 -0.33829,0.74814 -1.23152,1.609452 -1.84604,1.780076 -0.55508,0.154127 -2.76571,0.149234 -3.31,-0.0076 z m 2.73815,-6.8344593 V 2.5623781 h -1.05419 -1.05419 l -0.0306,4.8532492 c -0.024,3.8038387 0.002,4.8740667 0.11713,4.9495047 0.0813,0.05297 0.56941,0.08278 1.08479,0.06628 l 0.93705,-0.02998 z m 7.02791,6.8121263 c -0.18395,-0.137638 -0.23426,-0.311807 -0.23426,-0.810954 0,-0.740711 0.18176,-1.02306 0.65857,-1.02306 h 0.33705 V 7.4819197 2.5038164 h -0.33705 c -0.47681,0 -0.65857,-0.2823575 -0.65857,-1.0230691 0,-0.91916708 0.10302,-0.96817899 2.03523,-0.96817899 2.12216,0 2.73657,0.17275437 3.66217,1.02969659 0.53243,0.4929403 0.81755,0.8950823 1.24483,1.7557972 l 0.55422,1.1164274 v 3.0652575 3.065266 l -0.51733,1.04536 c -0.60695,1.226452 -1.65377,2.362577 -2.41097,2.616647 -0.27486,0.09222 -1.21904,0.178936 -2.28408,0.209766 -1.48894,0.04312 -1.85768,0.02105 -2.04981,-0.12274 z m 3.72338,-2.157956 c 0.10293,-0.113746 0.36147,-0.574947 0.57453,-1.024905 l 0.38737,-0.818095 V 7.4819197 4.6707579 l -0.38737,-0.8181032 c -0.38846,-0.8203854 -0.67588,-1.2317065 -0.86067,-1.2317065 -0.0545,0 -0.099,2.1874388 -0.099,4.8609715 0,2.6735413 0.0446,4.8609803 0.099,4.8609803 0.0544,0 0.1832,-0.09306 0.28614,-0.20681 z m 7.95732,2.132844 c -0.21408,-0.14995 -0.26033,-0.294131 -0.26033,-0.81156 0,-0.703254 0.19242,-0.997342 0.65259,-0.997342 h 0.28446 V 7.4819197 2.5038164 h -0.27468 c -0.43357,0 -0.66237,-0.3509573 -0.66237,-1.0159783 0,-0.9978557 -0.0872,-0.97526979 3.76434,-0.97526979 2.69369,0 3.3797,0.0319167 3.5633,0.16600892 0.20461,0.14940213 0.23116,0.34413607 0.2653,1.94610997 0.0413,1.9382445 -0.0543,2.4115884 -0.51038,2.5260422 -0.37436,0.093965 -0.65194,-0.087792 -0.9917,-0.6493574 -0.16106,-0.266197 -0.4367,-0.7192372 -0.61253,-1.006757 -0.37489,-0.6130447 -0.93273,-0.9897459 -1.46656,-0.9903607 l -0.38068,-4.379e-4 v 1.6398444 c 0,1.3795507 0.0279,1.6398444 0.17569,1.6398444 0.12637,0 0.17571,-0.1292163 0.17571,-0.4601562 0,-0.2621548 0.0792,-0.5393669 0.18406,-0.6442288 0.26171,-0.2617085 0.93737,-0.2339435 1.22152,0.050191 0.21419,0.2141956 0.23426,0.3904448 0.23426,2.0575068 0,1.0061001 -0.0531,1.9225303 -0.11855,2.0447738 -0.16921,0.3161605 -0.86352,0.4229341 -1.22216,0.1879379 -0.21352,-0.1399029 -0.29459,-0.3107035 -0.3216,-0.677535 -0.0199,-0.2697676 -0.10199,-0.5121492 -0.18252,-0.5386258 -0.11389,-0.037475 -0.14641,0.4777904 -0.14641,2.3194851 v 2.367629 l 0.53599,-0.06038 c 0.66197,-0.07461 1.05806,-0.428399 1.58368,-1.414574 0.4268,-0.800748 0.82238,-1.2495097 1.10146,-1.2495097 0.10248,0 0.31572,0.1293763 0.47385,0.2875027 0.28059,0.280598 0.2875,0.331285 0.2875,2.10838 0,1.664696 -0.0201,1.840962 -0.23426,2.055132 -0.22322,0.223215 -0.39044,0.234264 -3.54646,0.234264 -2.80822,0 -3.35181,-0.02771 -3.57252,-0.182338 z"
       id="path1670" /><path
       style="fill:#000000;stroke-width:0.0735377"
       d="m 50.848757,15.201204 c -0.206814,-0.0899 -0.533521,-0.484123 -0.534321,-0.644734 -1.48e-4,-0.03032 0.148638,-0.05516 0.330644,-0.05516 0.232869,0 0.374497,0.04354 0.477994,0.147078 0.229635,0.229631 0.753537,0.203904 0.950653,-0.04665 0.08706,-0.110681 0.152413,-0.302165 0.152413,-0.446565 v -0.252801 l -0.193762,0.152408 c -0.275409,0.216638 -0.875601,0.210027 -1.206987,-0.01331 -0.374839,-0.252605 -0.545529,-0.602417 -0.546864,-1.120756 -0.0014,-0.547392 0.176522,-0.931933 0.533211,-1.152377 0.363309,-0.224537 0.886692,-0.22634 1.18749,-0.0042 0.221989,0.16403 0.226912,0.164426 0.226912,0.01836 0,-0.127894 0.04739,-0.149275 0.330919,-0.149275 h 0.330919 l -2.94e-4,1.489136 c -2.94e-4,1.676865 -0.03998,1.829897 -0.535305,2.064943 -0.32018,0.151937 -1.167971,0.159702 -1.503642,0.01381 z m 1.211923,-1.770206 c 0.119464,-0.135751 0.16546,-0.280446 0.16546,-0.520495 0,-0.642241 -0.653684,-0.997847 -1.069639,-0.581886 -0.147538,0.147533 -0.180502,0.253785 -0.180502,0.58176 0,0.360676 0.02367,0.421183 0.233999,0.598164 0.28393,0.238913 0.597347,0.210339 0.850682,-0.07756 z m 1.355459,1.612669 c 0.02222,-0.270862 0.03758,-0.286787 0.310511,-0.321735 0.508502,-0.0651 0.4942,-0.265254 -0.136462,-1.909671 -0.224433,-0.585196 -0.408059,-1.08985 -0.408059,-1.121447 0,-0.03158 0.159128,-0.05743 0.353616,-0.05743 h 0.353617 l 0.305493,0.93761 c 0.168022,0.515677 0.308466,0.921053 0.312101,0.900834 0.0036,-0.02021 0.129366,-0.433874 0.279403,-0.919218 l 0.272796,-0.882459 0.348396,-0.0224 c 0.191618,-0.01229 0.34876,0.0042 0.349205,0.0368 4.41e-4,0.03251 -0.23808,0.753023 -0.530056,1.601047 -0.638664,1.85495 -0.711956,1.961951 -1.376788,2.010045 l -0.457146,0.03309 z M 32.272078,14.398259 c -0.976185,-0.362578 -1.244087,-1.659845 -0.497051,-2.406881 0.831627,-0.831627 2.070748,-0.330822 2.252785,0.910494 l 0.05123,0.349306 h -1.001109 c -0.649955,0 -1.001108,0.02712 -1.001108,0.07722 0,0.146067 0.215354,0.493361 0.334214,0.538971 0.246121,0.09444 0.62267,0.0448 0.768851,-0.101401 0.103498,-0.103498 0.245126,-0.147069 0.477995,-0.147069 0.182006,0 0.330919,0.01819 0.330919,0.04042 0,0.02223 -0.04883,0.134858 -0.108523,0.25028 -0.237869,0.459988 -1.034075,0.701932 -1.608199,0.488688 z m 1.054884,-1.702263 c 0,-0.115632 -0.230874,-0.462548 -0.334214,-0.502203 -0.255822,-0.09817 -0.557795,-0.04278 -0.735425,0.134824 -0.334211,0.334208 -0.253987,0.407802 0.444569,0.407802 0.343788,0 0.62507,-0.01819 0.62507,-0.04042 z m 1.896636,1.73674 c -0.602449,-0.194001 -0.940647,-0.698133 -0.940647,-1.40217 0,-0.737992 0.343311,-1.232237 0.973872,-1.402027 0.677752,-0.182507 1.374645,0.172687 1.560475,0.79534 0.04567,0.153015 0.02633,0.165462 -0.256989,0.165462 -0.248367,0 -0.347046,-0.04354 -0.521215,-0.229994 -0.188227,-0.201496 -0.248606,-0.224512 -0.487345,-0.185774 -0.467889,0.07596 -0.70082,0.603007 -0.536376,1.21371 0.09339,0.346823 0.307958,0.525733 0.63052,0.525733 0.218839,0 0.549037,-0.222853 0.549037,-0.370554 0,-0.03891 0.148914,-0.07065 0.33092,-0.07065 0.257018,0 0.330919,0.02678 0.330919,0.120012 0,0.195197 -0.267107,0.568656 -0.508217,0.71058 -0.262916,0.154758 -0.841114,0.221749 -1.124954,0.130353 z m 8.748972,-8.42e-4 c -0.659615,-0.21097 -1.012175,-0.68807 -1.012175,-1.369706 0,-0.596312 0.210641,-1.005974 0.649489,-1.26316 0.689238,-0.403919 1.608534,-0.180805 1.980273,0.480611 0.37965,0.675497 0.128295,1.68201 -0.500107,2.0026 -0.341793,0.174371 -0.834095,0.240302 -1.11748,0.149663 z m 0.807794,-0.631841 c 0.354053,-0.24799 0.385134,-1.105151 0.05307,-1.463461 -0.244114,-0.263401 -0.70653,-0.264479 -0.949592,-0.0025 -0.503836,0.543645 -0.206248,1.578672 0.453897,1.578672 0.154715,0 0.353898,-0.05086 0.442628,-0.113005 z m 3.45739,0.631841 c -0.673385,-0.215375 -1.012176,-0.685603 -1.012176,-1.404848 0,-0.354587 0.04093,-0.531359 0.176634,-0.762919 0.533724,-0.910737 2.012471,-0.878762 2.463659,0.05331 0.33648,0.695077 0.121996,1.582975 -0.465565,1.927314 -0.346651,0.203146 -0.856155,0.285187 -1.162552,0.187188 z m 0.858811,-0.705081 c 0.503837,-0.543645 0.206249,-1.578664 -0.453896,-1.578664 -0.154715,0 -0.353898,0.05086 -0.442628,0.112997 -0.354047,0.247982 -0.38445,1.14554 -0.05012,1.479857 0.245992,0.245994 0.711997,0.239013 0.946652,-0.01415 z M 0.52916667,7.4784754 V 0.52916667 h 1.54429103 1.54429 V 7.4784754 14.427784 h -1.54429 -1.54429103 z m 9.26574503,0 V 0.52916667 h 1.5442903 1.544291 V 7.4784754 14.427784 H 11.339202 9.7949117 Z m 4.6328723,2.3179268 v -4.634363 h 1.544843 1.544844 l -0.01894,4.6144803 -0.01894,4.6144895 -1.525906,0.01987 -1.525906,0.01987 z m 4.632873,0 v -4.634363 h 1.544843 1.544843 l -0.01894,4.6144803 -0.01894,4.6144895 -1.525906,0.01987 -1.525906,0.01987 z m 10.810035,3.0135508 v -1.617831 h -0.588301 -0.588302 v -0.330915 -0.330923 h 1.544291 1.544291 v 0.330923 0.330915 h -0.588302 -0.5883 v 1.617831 1.617831 H 30.23838 29.870692 Z m 7.353766,-0.330923 v -1.948746 h 0.330919 0.330919 v 0.741916 0.741916 l 0.218852,-0.184157 c 0.414649,-0.348902 0.967065,-0.320472 1.33301,0.06863 0.168377,0.179019 0.177323,0.239863 0.199718,1.358312 l 0.02344,1.170896 h -0.33598 -0.335979 v -0.939631 c 0,-1.071264 -0.06941,-1.266503 -0.450231,-1.266503 -0.52838,0 -0.652835,0.268454 -0.652835,1.408192 v 0.797942 h -0.330914 -0.330919 z m 2.941506,0.551536 v -1.397219 h 0.330919 c 0.306986,0 0.33092,0.01373 0.33092,0.19038 v 0.190389 l 0.218852,-0.184157 c 0.120368,-0.101283 0.312553,-0.20473 0.42708,-0.229884 0.324591,-0.07133 0.759064,0.108491 0.950823,0.393451 0.156409,0.232428 0.168149,0.326131 0.168149,1.342067 v 1.092191 h -0.325222 -0.325222 l -0.02408,-0.998849 c -0.02678,-1.110709 -0.0701,-1.207285 -0.541503,-1.207285 -0.430733,0 -0.508892,0.183273 -0.536334,1.257627 l -0.02423,0.948507 H 40.49104 40.165965 Z m 5.973713,-0.533152 0.0196,-1.930362 h 0.33092 0.330919 l 0.0196,1.930362 0.0196,1.93037 H 46.490203 46.120072 Z M 5.1620387,5.934179 V 0.52916667 h 1.544291 1.54429 V 5.934179 11.3392 h -1.54429 -1.544291 z M 34.819521,9.4196673 C 34.398586,9.3418546 34.226875,9.2387695 34.058679,8.9629133 33.848168,8.617674 33.873463,8.5447709 34.203757,8.5447709 c 0.222498,0 0.338961,0.050444 0.509106,0.2206126 0.248738,0.2487313 0.544519,0.2877892 0.803865,0.1061335 0.360447,-0.2524619 0.164424,-0.4561477 -0.59783,-0.6211713 -0.448931,-0.097199 -0.756853,-0.2546514 -0.85438,-0.4368797 -0.137596,-0.2571021 -0.08821,-0.639774 0.113495,-0.8794945 0.45317,-0.5385584 1.673106,-0.4537139 1.978904,0.1376376 0.167984,0.3248429 0.141164,0.3700905 -0.219368,0.3700905 -0.182006,0 -0.33092,-0.030738 -0.33092,-0.068297 0,-0.1554739 -0.247466,-0.2994022 -0.514764,-0.2994022 -0.266108,0 -0.514763,0.1438019 -0.514763,0.2977095 0,0.1174686 0.318675,0.2667528 0.772146,0.3617029 0.717886,0.15032 0.992758,0.3871099 0.992758,0.8552158 0,0.6053393 -0.694055,0.9841795 -1.522485,0.8310215 z m 12.06339,0.00952 C 46.190987,9.2677135 45.830783,8.7886852 45.830783,8.0299858 c 0,-0.5631149 0.189705,-0.966899 0.576835,-1.2277906 0.867953,-0.5849093 1.927392,-0.043201 2.050435,1.0484339 l 0.03679,0.3264345 H 47.53363 c -0.542097,0 -0.980449,0.031159 -1.005328,0.071413 -0.06257,0.1012408 0.157027,0.498111 0.325511,0.5882777 0.223875,0.1198182 0.556172,0.088592 0.759517,-0.071328 0.221714,-0.174405 0.788847,-0.2079638 0.788847,-0.046654 0,0.1492001 -0.279643,0.4769988 -0.502872,0.5894568 -0.261746,0.131869 -0.730701,0.187719 -1.016398,0.1210476 z m 0.857432,-1.8172979 c 0,-0.2155935 -0.299101,-0.46435 -0.558337,-0.46435 -0.339565,0 -0.461774,0.062654 -0.584217,0.2994106 -0.05918,0.1144285 -0.107586,0.226238 -0.107586,0.2484702 0,0.022232 0.281281,0.040422 0.625069,0.040422 0.537174,0 0.625071,-0.017432 0.625071,-0.1239528 z m 2.909465,1.8060515 C 49.793203,9.2177163 49.336432,8.2311704 49.717773,7.4049154 50.414545,5.8952221 52.64381,6.5910734 52.416785,8.2473983 52.303118,9.0766849 51.491134,9.6145949 50.649808,9.4179409 Z m 0.697953,-0.5812207 c 0.378366,-0.2024983 0.487344,-1.1278298 0.173815,-1.4758734 -0.337527,-0.3746801 -0.865013,-0.3229228 -1.096884,0.107641 -0.2001,0.3715642 -0.126332,1.0437769 0.13965,1.2725666 0.211585,0.1820009 0.545839,0.2228189 0.783419,0.095666 z M 37.354463,9.3633457 C 37.243961,9.3378292 37.086774,9.2593091 37.00516,9.1889239 36.870493,9.0727859 36.856769,8.9724715 36.856769,8.1042447 V 7.1475355 h -0.220613 c -0.203103,0 -0.220613,-0.020464 -0.220613,-0.2573799 0,-0.2369583 0.01751,-0.25738 0.220613,-0.25738 h 0.220613 V 6.1915421 5.7503169 h 0.33092 0.330919 v 0.4412252 0.4412335 h 0.220613 c 0.203104,0 0.220613,0.020464 0.220613,0.25738 0,0.237573 -0.01716,0.2573799 -0.223021,0.2573799 h -0.223022 l 0.02079,0.8272992 0.02079,0.8272993 0.238998,0.023074 c 0.21702,0.020885 0.238997,0.045475 0.238997,0.2671908 0,0.3126152 -0.182971,0.3856446 -0.678909,0.2709803 z m 2.888631,-0.010948 C 39.838821,9.257229 39.798276,9.14211 39.798276,8.0894738 V 7.1475355 h -0.220614 c -0.203103,0 -0.220612,-0.020464 -0.220612,-0.2573799 0,-0.2369583 0.01751,-0.25738 0.220612,-0.25738 h 0.220614 V 6.1915421 5.7503169 h 0.330919 0.330919 v 0.4412252 0.4412335 h 0.220614 c 0.203103,0 0.220612,0.020464 0.220612,0.25738 0,0.237573 -0.01716,0.2573799 -0.223021,0.2573799 h -0.223021 l 0.02079,0.8267013 0.02079,0.8267014 0.220614,0.037643 c 0.183218,0.031327 0.224397,0.07655 0.242939,0.2667612 0.01818,0.18654 -0.0091,0.2374888 -0.147075,0.2744415 -0.198683,0.053222 -0.235207,0.051454 -0.570267,-0.027453 z m 1.402218,-0.045138 C 41.340837,9.0939991 41.269029,8.780525 41.269029,7.6646365 V 6.6327504 h 0.367688 0.367689 v 0.9608188 c 0,0.5284529 0.03426,1.0248375 0.07613,1.1030629 0.108613,0.2029447 0.588333,0.1953402 0.776545,-0.012295 0.119379,-0.131709 0.143671,-0.2947873 0.164317,-1.1030629 l 0.02423,-0.9485069 h 0.325075 0.325076 v 1.3604428 1.3604428 h -0.33092 c -0.29243,0 -0.331594,-0.019285 -0.336725,-0.1654531 -0.0032,-0.091009 -0.02273,-0.1233972 -0.04341,-0.072002 -0.117258,0.2914357 -1.013566,0.4192962 -1.339403,0.1910707 z m 3.283833,0.06737 C 44.818809,9.3578719 44.661622,9.2590817 44.579841,9.1551124 44.448817,8.9885477 44.431148,8.8580345 44.431148,8.0567823 V 7.1474765 h -0.183844 c -0.161083,0 -0.183845,-0.031832 -0.183845,-0.2573799 0,-0.2255138 0.02276,-0.2573799 0.183845,-0.2573799 0.175673,0 0.183844,-0.019622 0.183844,-0.4412336 V 5.750258 h 0.33092 0.330919 v 0.4412251 0.4412336 h 0.257381 c 0.245126,0 0.257383,0.012295 0.257383,0.2573799 0,0.245127 -0.01226,0.2573799 -0.257383,0.2573799 h -0.257381 v 0.7293597 c 0,0.8800418 0.02574,0.9620062 0.302018,0.9620062 0.192715,0 0.212746,0.023411 0.212746,0.2488071 0,0.1958539 -0.03521,0.2582389 -0.16546,0.2931451 -0.091,0.024422 -0.198552,0.039833 -0.238998,0.034359 -0.04045,-0.00589 -0.163812,-0.023748 -0.274148,-0.040506 z M 29.870692,7.4416996 V 5.5297212 h 0.367688 0.367689 V 7.4416996 9.3536781 H 30.23838 29.870692 Z m 1.25014,0.5515357 V 6.6327925 h 0.367688 c 0.341267,0 0.367689,0.012969 0.367689,0.1803251 v 0.1803335 l 0.192799,-0.1786745 c 0.388153,-0.3597323 1.059281,-0.2937515 1.380362,0.1357007 0.138406,0.1851168 0.157505,0.3246576 0.178656,1.3052412 l 0.02368,1.0979596 H 33.258721 32.885734 V 8.4117482 c 0,-1.0647207 -0.04743,-1.1955708 -0.437372,-1.2066616 -0.184922,-0.00505 -0.293122,0.044212 -0.420566,0.1924097 -0.159049,0.1849063 -0.171589,0.263679 -0.171589,1.0778326 V 9.3536781 H 31.488518 31.12083 Z m 7.280228,0 V 6.6327925 h 0.330919 0.33092 V 7.9932353 9.3536781 H 38.731979 38.40106 Z M 52.961516,8.2506152 V 7.1475523 h -0.220613 c -0.203103,0 -0.220613,-0.020464 -0.220613,-0.2573799 0,-0.2369583 0.01751,-0.2573799 0.220613,-0.2573799 0.206191,0 0.220613,-0.01819 0.220613,-0.2777932 0,-0.152779 0.05396,-0.3548311 0.119917,-0.4489895 0.142936,-0.2040732 0.524501,-0.3762886 0.83371,-0.3762886 0.211113,0 0.222976,0.015664 0.222976,0.2941557 0,0.2579105 -0.02083,0.2941473 -0.169137,0.2941473 -0.215513,0 -0.345627,0.1301174 -0.345627,0.3456266 0,0.1442736 0.03784,0.1691417 0.257382,0.1691417 0.245125,0 0.257382,0.012295 0.257382,0.2573799 0,0.245127 -0.01226,0.2573799 -0.257382,0.2573799 h -0.257382 v 1.1030629 1.1030629 h -0.33092 -0.330919 z M 38.40106,5.9709463 V 5.676799 h 0.330919 0.33092 V 5.9709463 6.265102 H 38.731979 38.40106 Z M 34.454202,4.3235312 C 34.170715,4.1952665 34.054258,3.9944103 34.049159,3.6249429 c -0.0075,-0.5448744 0.23605,-0.7481728 1.070474,-0.8934821 0.643808,-0.1121127 0.841373,-0.2931284 0.59205,-0.5424491 -0.22799,-0.2279896 -0.913968,-0.090007 -0.913968,0.1838452 0,0.037559 -0.148914,0.068297 -0.330919,0.068297 -0.182006,0 -0.33092,-0.01979 -0.33092,-0.044043 0,-0.024253 0.05272,-0.1551286 0.117143,-0.2908967 0.298964,-0.6300221 1.553535,-0.7414526 2.052218,-0.1822872 0.129551,0.1452673 0.151456,0.2998232 0.183844,1.2971905 l 0.03677,1.1322763 -0.319419,-1.348e-4 C 35.946221,4.3531496 35.879697,4.325132 35.847552,4.2022316 35.808292,4.0521137 35.807192,4.052181 35.634389,4.2145266 35.415602,4.420065 34.794351,4.4774561 34.454203,4.3235486 Z m 1.192539,-0.5921347 c 0.123762,-0.1237677 0.180501,-0.262458 0.180501,-0.4412252 0,-0.1433977 -0.02482,-0.2603358 -0.05515,-0.2598557 -0.157933,0.00253 -0.849959,0.2205367 -0.941753,0.2967242 -0.12894,0.1070093 -0.138639,0.3758843 -0.01791,0.4966119 0.159202,0.1592046 0.635531,0.1065294 0.834318,-0.092255 z m 1.634203,0.5438638 C 37.0136,4.1341026 36.783232,3.8144473 36.783232,3.5846302 c 0,-0.08604 0.08108,-0.1139569 0.330919,-0.1139569 0.228178,0 0.330919,0.030738 0.330919,0.098908 0,0.185041 0.296852,0.3757412 0.584887,0.3757412 0.313626,0 0.518179,-0.1318438 0.518179,-0.3339969 0,-0.1721986 -0.148472,-0.2490092 -0.698609,-0.361425 -0.762859,-0.1558949 -0.992758,-0.3429065 -0.992758,-0.8075766 0,-0.5908462 0.520534,-0.9415593 1.280968,-0.8630813 0.455981,0.047075 0.739606,0.2064901 0.892151,0.5014795 0.162586,0.3144089 0.13394,0.3604229 -0.224371,0.3604229 -0.241592,0 -0.330919,-0.029054 -0.330919,-0.1077252 0,-0.153857 -0.237098,-0.2599653 -0.580879,-0.2599653 -0.224196,0 -0.316186,0.036969 -0.377627,0.151777 -0.119221,0.2227684 0.01483,0.3399422 0.504546,0.4410062 0.642659,0.1326269 0.962613,0.2851533 1.081855,0.5157451 0.225175,0.4354397 0.06007,0.8926906 -0.410124,1.1358385 -0.308422,0.1594909 -1.072374,0.1364587 -1.411425,-0.042527 z m 2.694939,0.046907 c -0.283567,-0.1234645 -0.545296,-0.4486695 -0.545296,-0.677535 0,-0.1540422 0.03381,-0.1739249 0.295728,-0.1739249 0.244369,0 0.310328,0.032001 0.3798,0.1845189 0.10875,0.2386763 0.527063,0.3738296 0.815494,0.2634685 0.456527,-0.1746744 0.266477,-0.535771 -0.333011,-0.6327169 -0.439156,-0.070991 -0.910434,-0.2893219 -1.004647,-0.4653605 -0.0439,-0.082023 -0.07982,-0.2869724 -0.07982,-0.4554066 0,-0.4030094 0.302,-0.70306 0.779737,-0.7746999 0.671041,-0.1006261 1.128629,0.086798 1.371481,0.5617423 l 0.128933,0.2521587 -0.298702,0.022822 c -0.247891,0.018947 -0.323902,-0.00918 -0.44681,-0.1654623 -0.27576,-0.3505699 -1.122876,-0.1928728 -0.898089,0.1671879 0.04417,0.070739 0.33302,0.1885949 0.683575,0.278888 0.735234,0.1893695 0.974329,0.3873709 0.985572,0.8161747 0.0095,0.3624776 -0.180862,0.6620735 -0.507388,0.7985068 -0.312097,0.1304037 -1.026671,0.1302101 -1.326557,-3.617e-4 z m 2.497909,-0.011874 c -0.126071,-0.062149 -0.266713,-0.1953655 -0.312536,-0.2959326 -0.08999,-0.197513 -0.110312,-0.608312 -0.03925,-0.7935046 0.07424,-0.1934623 0.483431,-0.3955144 0.983534,-0.4856643 0.261837,-0.047159 0.534846,-0.1172665 0.606686,-0.1557097 0.304912,-0.1631878 0.04472,-0.5059596 -0.384061,-0.5059596 -0.216658,0 -0.318503,0.04438 -0.431663,0.1882832 -0.122908,0.1562487 -0.19892,0.1844011 -0.446806,0.1654616 l -0.298702,-0.022822 0.128933,-0.2521588 c 0.219797,-0.4298564 0.467017,-0.5567568 1.084636,-0.5567568 0.432919,0 0.581883,0.030569 0.74839,0.1536886 0.330404,0.2442595 0.379212,0.4319364 0.40472,1.556162 l 0.02378,1.0480213 -0.314905,-1.095e-4 c -0.257785,-8.42e-5 -0.326968,-0.030148 -0.381412,-0.1655626 -0.03658,-0.091 -0.06861,-0.1249467 -0.07117,-0.075455 -0.01432,0.2765131 -0.875257,0.4076157 -1.300179,0.1979845 z m 1.198855,-0.5582221 c 0.120385,-0.113098 0.1702,-0.2422385 0.1702,-0.4412252 0,-0.1547328 -0.02482,-0.2809427 -0.05515,-0.2804627 -0.157932,0.00253 -0.849959,0.2205368 -0.941752,0.2967242 -0.128941,0.1070094 -0.13864,0.3758844 -0.01791,0.496612 0.150068,0.1500674 0.65413,0.1073041 0.844621,-0.071665 z m 1.971872,0.5704246 C 45.149023,4.101327 44.861946,3.6135237 44.861946,2.9927397 c 0,-0.6297778 0.29111,-1.1155937 0.798595,-1.3327283 0.585164,-0.2503819 1.384615,-0.010779 1.641035,0.4918708 0.07954,0.1559034 0.144616,0.3013307 0.144616,0.3231671 0,0.021811 -0.152425,0.039664 -0.33872,0.039664 -0.275553,0 -0.36625,-0.035033 -0.486338,-0.1876601 -0.208986,-0.2656833 -0.674521,-0.2330424 -0.8945,0.062739 -0.226987,0.3051876 -0.216954,1.0038264 0.01801,1.2539303 0.31791,0.3384012 0.81085,0.3075709 0.978882,-0.061223 0.07136,-0.1566191 0.133848,-0.1853189 0.403554,-0.1853189 0.254999,0 0.31906,0.025853 0.31884,0.1286942 -4.41e-4,0.2088564 -0.274291,0.5969095 -0.532201,0.7541603 -0.283048,0.1725691 -0.929246,0.1941866 -1.269197,0.042443 z m 5.496307,0.00674 C 50.768703,4.1225655 50.720334,3.9521522 50.693633,2.7537014 l -0.02499,-1.1214466 h 0.374289 0.374287 v 0.9813584 c 0,0.857338 0.01699,0.9967441 0.134482,1.1030629 0.179001,0.1620004 0.471117,0.154017 0.684671,-0.018695 0.163848,-0.1325174 0.174968,-0.1945234 0.197834,-1.1030629 l 0.02423,-0.9626546 h 0.361844 0.361844 v 1.3604428 1.3604512 h -0.367688 c -0.323879,0 -0.367688,-0.018274 -0.367688,-0.1536128 0,-0.1478273 -0.0085,-0.1464378 -0.226256,0.036801 -0.174364,0.1467158 -0.305071,0.1897823 -0.569917,0.187778 -0.189013,-0.00168 -0.418403,-0.044128 -0.509754,-0.094849 z m 2.880749,-0.00674 c -0.283567,-0.123465 -0.545295,-0.44867 -0.545295,-0.6775354 0,-0.1540423 0.0338,-0.173925 0.295727,-0.173925 0.24437,0 0.310329,0.032001 0.379801,0.1845189 0.108749,0.2386763 0.527063,0.3738296 0.815494,0.2634686 0.451479,-0.1727376 0.273454,-0.5461376 -0.300479,-0.6302326 -0.458881,-0.067202 -0.938582,-0.2836123 -1.037179,-0.4678449 -0.0439,-0.082023 -0.07982,-0.2869723 -0.07982,-0.4554066 0,-0.5056059 0.428113,-0.8064818 1.147537,-0.8064818 0.456479,0 0.840979,0.211366 0.990726,0.5446217 l 0.135278,0.3010612 -0.295397,0.022822 c -0.244387,0.018864 -0.320973,-0.00968 -0.443501,-0.1654615 -0.275857,-0.3506963 -1.124138,-0.1926539 -0.897366,0.1671879 0.04459,0.070739 0.332353,0.1875421 0.681115,0.2764289 0.737641,0.18798 0.994701,0.4015103 0.994701,0.826255 0,0.3571049 -0.195514,0.6574839 -0.514779,0.7908856 -0.312097,0.1304037 -1.026672,0.13021 -1.326558,-3.621e-4 z m 2.760959,-0.064844 c -0.42979,-0.2272822 -0.658898,-0.6565912 -0.658898,-1.234654 0,-0.5055217 0.08753,-0.7652174 0.353982,-1.0501939 0.526809,-0.563435 1.46196,-0.5539526 1.944676,0.019706 0.206399,0.2452954 0.3476,0.6434456 0.348286,0.982091 l 4.11e-4,0.2022289 h -0.992759 c -0.644125,0 -0.992758,0.027116 -0.992758,0.077223 0,0.042443 0.05122,0.1762492 0.113829,0.2973137 0.200977,0.3886426 0.730329,0.4793905 1.03269,0.1770324 0.134114,-0.1341175 0.262508,-0.1838452 0.474652,-0.1838452 0.338067,0 0.376064,0.1149422 0.145181,0.4391956 -0.326707,0.4588088 -1.172135,0.5897009 -1.769292,0.2739194 z M 58.035615,2.631332 c 0,-0.3371632 -0.377409,-0.5994023 -0.746093,-0.5184231 -0.21897,0.048086 -0.536553,0.4370903 -0.459128,0.5623654 0.02051,0.03318 0.300081,0.060381 0.621259,0.060381 0.455085,0 0.583962,-0.02299 0.583962,-0.1042893 z m 4.932249,1.6668515 C 62.694182,4.1586254 62.469458,3.887982 62.433676,3.6548385 c -0.01909,-0.124374 0.0247,-0.1505137 0.283763,-0.1693774 0.259025,-0.018864 0.314063,0.00168 0.356389,0.1353975 0.107393,0.3383675 0.903644,0.4465558 1.065174,0.1447368 C 64.255939,3.5470965 64.058212,3.4001113 63.439755,3.2457743 62.6928,3.0593774 62.481656,2.8716668 62.491696,2.4029209 c 0.0045,-0.2117786 0.05702,-0.3853667 0.147075,-0.486439 0.444643,-0.4990374 1.520096,-0.472283 1.929348,0.048001 0.25437,0.3233776 0.213707,0.4769904 -0.126271,0.4769904 -0.223592,0 -0.311878,-0.040001 -0.406152,-0.1838452 -0.09741,-0.1486695 -0.18064,-0.1838452 -0.434976,-0.1838452 -0.336185,0 -0.491008,0.096744 -0.491008,0.3068044 0,0.1289805 0.02693,0.1394061 1.117505,0.4325765 0.363881,0.097822 0.573862,0.3765328 0.573862,0.7616974 0,0.3673115 -0.131034,0.5722436 -0.468179,0.7322313 -0.338439,0.1606025 -1.041605,0.1560129 -1.365036,-0.00893 z M 29.870692,2.4414736 V 0.5294951 h 0.534423 0.534424 l 0.308524,1.1214466 c 0.169689,0.6168006 0.348957,1.2869081 0.398374,1.489137 l 0.08985,0.3676904 0.10038,-0.4044578 c 0.05521,-0.2224568 0.234982,-0.8925643 0.399498,-1.489137 l 0.299118,-1.0846792 h 0.542916 0.542916 V 2.4414736 4.353452 H 33.291747 32.962382 L 32.942441,2.9073815 32.922499,1.4613194 32.519336,2.9073815 32.116173,4.353452 H 31.73775 31.359326 L 30.976525,2.9746171 C 30.765984,2.216263 30.582567,1.562695 30.56893,1.5222475 30.5553,1.4818255 30.54153,2.1022808 30.53833,2.9010824 l -0.0058,1.4523696 h -0.330933 -0.330919 z m 17.943188,0 V 0.5294951 h 0.33092 0.330919 v 0.6986051 c 0,0.3842299 0.02004,0.6986051 0.04454,0.6986051 0.0245,0 0.142858,-0.082697 0.263025,-0.1838452 0.381854,-0.321306 1.070299,-0.1912897 1.331882,0.2515355 0.102824,0.1740681 0.125461,0.4060495 0.125461,1.2857207 V 4.353452 h -0.33092 -0.33092 V 3.4308827 c 0,-0.8814566 -0.008,-0.9306032 -0.180502,-1.1030629 -0.227568,-0.2275685 -0.417324,-0.2284612 -0.679465,-0.00337 -0.202837,0.1743039 -0.206741,0.1929739 -0.230711,1.1030713 l -0.02438,0.925761 H 48.138808 47.813886 Z M 59.496129,4.2130438 C 59.332281,4.0805264 59.321161,4.0185204 59.298295,3.1099725 l -0.02423,-0.9626546 h -0.178 c -0.154404,0 -0.178001,-0.034106 -0.178001,-0.25738 0,-0.2255137 0.02276,-0.2573799 0.183844,-0.2573799 0.175859,0 0.183845,-0.019369 0.183845,-0.445259 V 0.7420485 l 0.349303,0.0224006 0.349304,0.0224006 0.02206,0.4228415 c 0.02161,0.4142265 0.02648,0.4228414 0.238998,0.4228414 0.19891,0 0.216943,0.02139 0.216943,0.25738 0,0.237573 -0.01716,0.2573799 -0.223022,0.2573799 h -0.223021 l 0.02079,0.8272993 0.02079,0.8272992 0.202228,0.023243 c 0.176831,0.02038 0.202229,0.054991 0.202229,0.275772 v 0.2524956 h -0.396311 c -0.280398,0 -0.447085,-0.041096 -0.569917,-0.1404082 z m 1.79198,0.091186 c -0.2246,-0.090369 -0.310988,-0.453596 -0.310988,-1.307574 V 2.1473179 h -0.183845 c -0.161082,0 -0.183843,-0.031832 -0.183843,-0.25738 0,-0.2255137 0.02276,-0.2573799 0.183843,-0.2573799 0.175674,0 0.183845,-0.019622 0.183845,-0.4412252 V 0.75010768 h 0.367688 0.367688 V 1.1913328 1.632558 h 0.220614 c 0.203103,0 0.220612,0.020464 0.220612,0.2573799 0,0.2375731 -0.01716,0.25738 -0.223021,0.25738 H 61.70768 l 0.02079,0.8272992 0.02079,0.8272993 0.202228,0.023243 c 0.17683,0.02038 0.202229,0.054991 0.202229,0.2757721 v 0.2524956 l -0.386073,-0.00589 c -0.21234,-0.00337 -0.428134,-0.022737 -0.479542,-0.043454 z M 14.427784,2.0734547 V 0.52916667 h 1.544291 1.54429 v 1.54428803 1.544288 h -1.54429 -1.544291 z m 4.632873,6.569e-4 V 0.52916667 h 3.862219 3.862219 l -0.01987,1.52590433 -0.01987,1.5259044 -3.842342,0.019032 -3.842342,0.019032 V 2.0740947 Z"
       id="path1666" /></g></svg>
