<?xml version="1.0" encoding="UTF-8" standalone="no"?>
<!-- Created with Inkscape (http://www.inkscape.org/) -->

<svg
   width="210mm"
   height="168mm"
   viewBox="0 0 210 168"
   version="1.1"
   id="svg5"
   xml:space="preserve"
   inkscape:version="1.2.2 (b0a8486541, 2022-12-01)"
   sodipodi:docname="this-is-not-interface.svg"
   xmlns:inkscape="http://www.inkscape.org/namespaces/inkscape"
   xmlns:sodipodi="http://sodipodi.sourceforge.net/DTD/sodipodi-0.dtd"
   xmlns="http://www.w3.org/2000/svg"
   xmlns:svg="http://www.w3.org/2000/svg"><sodipodi:namedview
     id="namedview7"
     pagecolor="#ffffff"
     bordercolor="#000000"
     borderopacity="0.25"
     inkscape:showpageshadow="2"
     inkscape:pageopacity="0.0"
     inkscape:pagecheckerboard="0"
     inkscape:deskcolor="#d1d1d1"
     inkscape:document-units="mm"
     showgrid="false"
     inkscape:zoom="0.77326038"
     inkscape:cx="294.20879"
     inkscape:cy="322.65975"
     inkscape:window-width="1854"
     inkscape:window-height="1011"
     inkscape:window-x="66"
     inkscape:window-y="32"
     inkscape:window-maximized="1"
     inkscape:current-layer="layer1" /><defs
     id="defs2" /><g
     inkscape:label="Camada 1"
     inkscape:groupmode="layer"
     id="layer1"><path
       style="fill:#000000;stroke-width:0.166455"
       d="m 85.891586,167.40196 c -1.486509,-0.3234 -2.554998,-0.93388 -3.588598,-2.05028 -1.000593,-1.08077 -1.49877,-2.00239 -1.936227,-3.58207 -0.255727,-0.92343 -0.284748,-2.17338 -0.284748,-12.26392 0,-10.21852 0.02656,-11.33184 0.293385,-12.29764 0.812829,-2.94213 2.474913,-4.78573 5.125377,-5.68514 1.504749,-0.51063 3.970298,-0.51063 5.475047,0 2.045659,0.69416 3.504369,1.99672 4.332387,3.86858 0.484472,1.09524 0.836693,3.43416 0.836693,5.55604 v 1.88488 l -0.540977,0.0987 c -0.297539,0.0542 -1.51474,0.0765 -2.704891,0.0491 l -2.163913,-0.0496 -0.08816,-2.33036 c -0.06565,-1.73531 -0.161971,-2.481 -0.377214,-2.92027 -0.77046,-1.57239 -3.194817,-1.54757 -4.062438,0.0416 -0.278048,0.50928 -0.302675,1.31666 -0.345665,11.33275 -0.02962,6.90236 0.01436,11.00965 0.122191,11.41009 0.263085,0.97703 0.99267,1.56669 2.042717,1.65099 0.720398,0.0578 0.981914,1e-5 1.460163,-0.32278 0.970929,-0.65529 1.149339,-1.47662 1.157899,-5.33052 l 0.0072,-3.28048 -1.290025,-0.0486 -1.290025,-0.0486 -0.04606,-2.45521 -0.04607,-2.45521 h 4.082595 4.082591 v 9.49439 9.49442 l -1.443046,-0.0481 -1.443047,-0.0481 -0.327517,-0.99872 c -0.180136,-0.54931 -0.356786,-1.03201 -0.392558,-1.07269 -0.03577,-0.0408 -0.285597,0.19362 -0.555165,0.52065 -0.740803,0.89873 -1.976702,1.61182 -3.267498,1.88528 -1.356342,0.28737 -1.506964,0.28741 -2.824485,0 z m 19.490014,0.0141 c -2.33043,-0.44142 -4.39559,-1.92055 -5.30625,-3.80045 -0.954118,-1.96959 -0.934261,-1.59995 -0.934261,-17.3908 v -14.52984 h 2.912961 2.91296 v 14.26257 c 0,13.8713 0.009,14.28122 0.32937,14.94294 0.40634,0.83941 1.07892,1.25593 2.02668,1.25511 0.93625,0 1.74625,-0.49799 2.10663,-1.29305 0.25585,-0.56447 0.28545,-1.91094 0.32736,-14.89407 l 0.0461,-14.2735 h 2.82527 2.82526 l -0.003,14.2735 c -0.003,15.41375 -0.008,15.50675 -0.89523,17.44495 -0.48743,1.06468 -1.7218,2.43426 -2.72251,3.02071 -1.67493,0.98156 -4.32447,1.38485 -6.45143,0.98197 z m 37.79122,0.0476 c -1.77475,-0.25835 -3.53708,-1.37529 -4.59414,-2.91164 -0.55045,-0.80007 -1.07442,-2.16302 -1.33702,-3.47785 -0.2201,-1.10204 -0.20436,-22.47973 0.0173,-23.46877 0.69253,-3.0902 2.44117,-5.14939 5.16938,-6.08744 0.84163,-0.28939 1.4498,-0.36893 2.82075,-0.36893 2.63114,0 4.37365,0.69919 5.86984,2.3553 1.36743,1.51358 1.92595,3.44537 1.98488,6.86531 0.0328,1.89711 -0.005,2.35936 -0.20366,2.48488 -0.1341,0.0848 -1.33819,0.15536 -2.67574,0.15676 l -2.43194,0.002 -0.0845,-2.28875 c -0.0927,-2.51235 -0.29353,-3.24995 -1.04637,-3.84212 -0.3435,-0.2702 -0.68731,-0.36086 -1.36846,-0.36086 -0.80779,0 -0.97142,0.0617 -1.46073,0.55103 -0.30307,0.30308 -0.63248,0.85354 -0.73204,1.22327 -0.26668,0.99036 -0.26621,21.29198 4.9e-4,22.18222 0.10913,0.36425 0.41731,0.87194 0.68483,1.12827 0.41982,0.40221 0.62022,0.46602 1.46331,0.46602 0.84204,0 1.04371,-0.0641 1.46114,-0.46396 0.76231,-0.73035 0.8935,-1.40176 0.9893,-5.06329 l 0.088,-3.36333 -1.31083,-0.049 -1.31084,-0.049 v -2.4136 -2.41359 h 3.94416 3.94415 l 0.0263,8.98856 c 0.0145,4.94371 0.0187,9.19455 0.01,9.44631 l -0.0172,0.45776 h -1.3771 -1.37711 l -0.39668,-1.16519 c -0.21819,-0.64085 -0.45989,-1.16519 -0.53714,-1.16519 -0.0772,0 -0.14043,0.0707 -0.14043,0.15724 0,0.0865 -0.3821,0.53337 -0.84913,0.99308 -1.31552,1.29495 -3.09398,1.80372 -5.22205,1.49393 z M 0.05786647,167.05176 c -0.11836152,-0.11833 -0.1601244,0.17946 0.95485403,-6.80977 0.4965623,-3.11271 1.2042406,-7.56954 1.5726172,-9.90407 0.3683766,-2.33453 1.1959092,-7.44996 1.8389601,-11.36764 0.6430521,-3.91764 1.1691851,-7.15728 1.1691851,-7.19914 0,-0.0419 1.4921432,-0.0761 3.3158704,-0.0761 h 3.3158717 l 0.09603,0.45774 c 0.113857,0.54269 0.71846,4.39996 4.512179,28.78685 0.501185,3.22172 0.911246,5.93701 0.911246,6.03399 0,0.11711 -0.946645,0.17629 -2.822191,0.17629 h -2.822188 l -0.08755,-0.54098 c -0.04816,-0.29755 -0.257535,-1.77474 -0.465294,-3.28269 l -0.377744,-2.74171 -2.4118696,-0.005 -2.4118656,-0.005 -0.1164711,0.83228 c -0.064054,0.45775 -0.2352389,1.69368 -0.3804005,2.7465 -0.1451617,1.05283 -0.3029095,2.15767 -0.35055,2.45521 l -0.086617,0.54099 H 2.7839498 c -1.4453951,0 -2.67213322,-0.0442 -2.72608456,-0.0981 z M 10.512124,154.79062 c -0.109154,-0.65548 -1.198947,-9.62558 -1.3397618,-11.02763 -0.2525095,-2.51415 -0.2895316,-2.46207 -0.7692787,1.08196 -0.5879248,4.34316 -1.3115074,10.01598 -1.3115074,10.28208 0,0.14886 0.4780543,0.20457 1.7553177,0.20457 h 1.7553202 z m 15.721755,-5.36619 v -17.72942 h 2.829733 2.829731 v 14.98095 14.98093 h 3.582902 3.582901 l -0.04574,2.70488 -0.04574,2.7049 -6.366897,0.0436 -6.366897,0.0436 z m 14.560195,17.18854 c 0.05238,-0.29977 0.577401,-3.57867 1.166713,-7.28645 0.589314,-3.70779 1.406259,-8.8013 1.815435,-11.31893 0.409176,-2.51763 1.171314,-7.2179 1.693641,-10.44504 l 0.949685,-5.86754 h 3.303607 c 3.291255,0 3.303908,0.001 3.383725,0.37453 0.305424,1.42778 5.585689,34.32603 5.585689,34.80119 0,0.26241 -0.246372,0.28313 -2.871346,0.24148 l -2.871346,-0.0455 -0.383103,-2.91296 c -0.210707,-1.60213 -0.413758,-3.06277 -0.451226,-3.24587 -0.06358,-0.3107 -0.22411,-0.33649 -2.405586,-0.38664 -2.136414,-0.0491 -2.347499,-0.0276 -2.454142,0.24968 -0.06418,0.16686 -0.307357,1.6517 -0.540408,3.2996 l -0.423727,2.99619 -2.796423,0.0457 -2.796422,0.0457 z m 10.525197,-11.9888 c -0.052,-0.38909 -0.405701,-3.3291 -0.786016,-6.53335 -0.380313,-3.20426 -0.737028,-6.01318 -0.792699,-6.24206 -0.09844,-0.40469 -0.102784,-0.4024 -0.158102,0.0832 -0.03129,0.27466 -0.166725,1.36077 -0.300977,2.4136 -0.134253,1.05283 -0.467613,3.67448 -0.7408,5.82591 -0.273189,2.15144 -0.536058,4.19258 -0.584155,4.5359 l -0.08745,0.6242 h 1.772369 1.772367 z m 9.652447,12.41903 c -0.06338,-0.0633 -0.115231,-8.04446 -0.115231,-17.73573 v -17.6205 l 2.788118,0.0457 2.788118,0.0457 0.356506,1.33164 c 0.196079,0.73241 0.595308,2.19305 0.887173,3.24588 1.253689,4.52232 3.832637,14.42483 3.832903,14.71737 1.57e-4,0.17547 0.03953,0.27981 0.08746,0.23186 0.04795,-0.048 0.104122,-4.46108 0.124842,-9.80695 l 0.03767,-9.7198 2.622421,-0.0459 2.62242,-0.0459 -0.04237,17.69006 -0.04238,17.69005 -2.623303,0.0459 c -2.591522,0.0453 -2.625236,0.0412 -2.782931,-0.3329 -0.08779,-0.20833 -0.832872,-2.81315 -1.65573,-5.78853 -0.822856,-2.97539 -1.986214,-7.16365 -2.585237,-9.30725 -0.599023,-2.14361 -1.089134,-3.99308 -1.089134,-4.10994 0,-0.11686 -0.05619,-0.24722 -0.124842,-0.28969 -0.06866,-0.0425 -0.124841,4.39122 -0.124841,9.85263 v 9.92985 l -2.423199,0.0459 c -1.332761,0.0252 -2.475057,-0.006 -2.538436,-0.0694 z m 56.436792,0.009 c -0.054,-0.054 -0.0645,-0.33487 -0.0234,-0.62424 0.31386,-2.21109 3.14405,-19.63651 5.03288,-30.98733 l 0.60937,-3.66202 3.35551,-0.0449 3.3555,-0.0451 0.0965,0.62761 c 0.0532,0.34517 0.69348,4.29792 1.42316,8.78389 0.72966,4.48595 1.74387,10.8154 2.2538,14.06543 0.50992,3.25003 1.13827,7.21998 1.39634,8.8221 0.25806,1.60213 0.43878,2.96913 0.4016,3.0378 -0.0372,0.0686 -1.33198,0.12484 -2.87732,0.12484 h -2.80972 l -0.10508,-0.70743 c -0.0578,-0.38908 -0.26835,-1.86846 -0.46794,-3.28748 l -0.36288,-2.58005 -2.31717,-0.0465 c -1.27445,-0.0257 -2.37895,0.0153 -2.45444,0.0907 -0.0755,0.0755 -0.32911,1.51487 -0.56356,3.19859 -0.23447,1.68373 -0.46395,3.12226 -0.50997,3.1967 -0.0947,0.15322 -5.28164,0.18883 -5.43317,0.0373 z m 10.58545,-12.34449 c -0.0432,-0.34331 -0.43716,-3.47057 -0.87543,-6.94948 -0.43826,-3.47891 -0.83784,-6.13803 -0.88796,-5.90914 -0.0501,0.22887 -0.44045,3.22505 -0.86739,6.65818 -0.42694,3.43314 -0.81386,6.37314 -0.85982,6.53335 -0.076,0.26481 0.0825,0.29131 1.74281,0.29131 h 1.82638 z m 28.31693,12.23348 c -0.0441,-0.1149 -0.0605,-8.07358 -0.0363,-17.68582 l 0.0438,-17.47681 16.43742,-0.0423 16.43741,-0.0424 v 2.99701 2.99699 h -13.39968 -13.39962 v 4.32783 4.32782 h 12.98348 12.98348 v 2.9962 2.99618 H 175.3774 162.39392 v 4.32684 4.32682 l 13.35801,0.0426 13.358,0.0426 0.0453,3.03781 0.0454,3.03779 h -16.40476 c -13.00991,0 -16.42138,-0.0433 -16.48499,-0.20903 z M 50.232718,124.85861 c -1.819224,-0.35802 -3.583658,-1.6064 -4.406053,-3.11741 -0.660303,-1.2132 -0.947942,-2.67467 -1.063134,-5.40175 l -0.103704,-2.45521 h 2.588605 2.588604 l 0.06323,2.1223 c 0.071,2.38301 0.273288,2.98795 1.185079,3.5439 0.641146,0.39093 1.133954,0.41125 1.786756,0.0737 0.879531,-0.45482 1.076509,-1.07868 1.076509,-3.4095 0,-1.98101 -0.02469,-2.13277 -0.515274,-3.16801 -0.353767,-0.74652 -0.979853,-1.58127 -1.997458,-2.66316 -0.815202,-0.86671 -1.931612,-2.05265 -2.480914,-2.63543 -1.428929,-1.51604 -2.215612,-2.60232 -2.849174,-3.93428 -0.914971,-1.92357 -1.134016,-3.02779 -1.122668,-5.659462 0.0149,-3.45343 0.498556,-4.99415 2.099002,-6.686393 1.622377,-1.71542 4.079589,-2.38409 6.877528,-1.87156 1.217893,0.2231 2.750131,1.01712 3.407454,1.76577 1.256832,1.431453 1.660494,2.943983 1.70847,6.401663 l 0.03313,2.387982 -2.538436,0.046 -2.538437,0.046 -9.99e-4,-1.793732 c -10e-4,-2.06486 -0.168331,-2.83036 -0.734698,-3.36244 -0.488093,-0.45854 -1.411531,-0.50385 -2.028594,-0.0995 -0.725767,0.47554 -0.939608,1.27266 -0.871923,3.25017 0.08733,2.551262 0.46884,3.253362 3.49642,6.434442 3.357183,3.5274 4.486837,5.2021 5.107544,7.57189 0.921196,3.51703 0.463268,7.85042 -1.063904,10.06781 -1.452932,2.10959 -4.613492,3.15437 -7.703033,2.54638 z m 31.763525,-0.0487 c -1.96735,-0.42738 -3.454033,-1.48812 -4.293729,-3.06354 -0.785498,-1.47374 -1.027536,-2.76342 -1.030365,-5.49017 l -0.0025,-2.37198 h 2.472331 2.472329 l 0.09194,1.99553 c 0.108983,2.36543 0.449698,3.29839 1.362809,3.73168 0.863937,0.40997 1.386305,0.33612 2.006044,-0.28362 0.667164,-0.66717 0.915164,-1.492 0.911018,-3.02999 -0.0072,-2.70132 -0.57116,-3.78772 -3.582487,-6.90225 -2.795757,-2.89156 -3.578492,-3.8615 -4.345772,-5.38511 -0.909681,-1.80638 -1.222165,-3.30338 -1.219298,-5.841222 0.0037,-3.26408 0.551133,-5.0875 1.999018,-6.658273 1.605351,-1.7416 4.553054,-2.48794 7.283618,-1.84417 1.382696,0.326 2.138196,0.73441 2.973539,1.60745 1.412547,1.476303 1.882672,3.138423 1.887134,6.671933 l 0.0029,2.288762 H 88.50814 86.031412 l -0.07216,-2.039062 c -0.09921,-2.80437 -0.462535,-3.45394 -1.931865,-3.45394 -1.55236,0 -2.288539,2.25511 -1.638184,5.01819 0.320069,1.359832 0.890443,2.222212 2.898442,4.382312 4.957854,5.3334 5.823191,6.97364 5.986117,11.3466 0.17292,4.64127 -1.099249,7.55261 -3.850718,8.81227 -1.5902,0.72801 -3.564868,0.91309 -5.426757,0.50862 z M 5.427028,109.97725 V 95.417018 l -2.371981,-0.0462 -2.37198083,-0.0462 0.001228,-2.66327 0.001228,-2.663283 H 8.0915292 15.497538 l 0.04574,2.704893 0.04574,2.70489 h -2.33449 -2.33449 v 14.564782 14.5648 H 8.1735307 5.4270255 v -14.56022 z m 12.317657,-2.74706 V 89.914875 h 2.30956 c 1.270259,0 2.543638,0.0468 2.829732,0.10403 l 0.520171,0.10404 v 7.136753 7.136742 h 2.162145 2.162143 l 0.04338,-7.199162 0.04338,-7.199173 2.496821,-0.0415 c 1.373253,-0.0228 2.598165,0.0238 2.722024,0.10364 0.18587,0.11975 0.239186,2.990553 0.305264,16.437255 0.04403,8.96068 0.03093,16.6854 -0.02911,17.16604 l -0.109167,0.87389 H 30.4665 27.731973 v -7.40724 -7.40723 h -2.16218 -2.162182 l -0.04335,7.36562 -0.04335,7.36562 -2.788118,0.0457 -2.788117,0.0457 z m 18.809394,0.0912 V 90.105275 l 0.873887,-0.10507 c 0.480639,-0.0578 1.735292,-0.0819 2.788118,-0.0536 l 1.914232,0.0515 0.04239,17.269685 0.04239,17.26969 H 39.38459 36.554084 Z m 31.83371,-0.0536 0.04239,-17.269685 1.91423,-0.0515 c 1.052827,-0.0283 2.307481,-0.004 2.788118,0.0536 l 0.873888,0.10508 V 107.32141 124.5375 H 71.175904 68.345398 Z M 160.41449,77.583635 c -2.02609,-0.39791 -4.05412,-1.92091 -4.90969,-3.68708 -0.99595,-2.05598 -0.9924,-2.01397 -1.0627,-12.61191 -0.0681,-10.26914 0.0308,-12.49649 0.6322,-14.24465 0.89177,-2.59196 2.77488,-4.2538 5.46679,-4.82437 3.82141,-0.80999 7.24124,0.59019 8.75954,3.58641 0.6826,1.34704 0.91054,2.7698 0.91377,5.70339 l 0.004,2.62166 h -2.74649 -2.74651 v -2.07249 c 0,-3.68335 -0.44722,-4.5857 -2.27271,-4.5857 -0.78052,0 -0.9842,0.0687 -1.38105,0.46551 -0.29869,0.29868 -0.5327,0.77882 -0.65301,1.33983 -0.25159,1.17307 -0.26049,20.47984 -0.01,21.38236 0.40943,1.47442 1.87279,2.19205 3.13694,1.53834 0.97892,-0.50622 1.17184,-1.25152 1.17601,-4.54339 l 0.004,-2.87135 h 2.74651 2.74649 l -0.002,3.0378 c -0.002,1.96427 -0.0856,3.42786 -0.23685,4.14157 -0.62813,2.9635 -2.65613,5.0161 -5.55274,5.62016 -1.01393,0.21144 -2.94399,0.21332 -4.01032,0.004 z M 0.43338378,77.019055 c 0,-0.25654 1.92349242,-12.45624 2.91383282,-18.48092 0.3160296,-1.92255 0.9875416,-6.07976 1.4922487,-9.23824 0.5047047,-3.15848 0.9616867,-5.94868 1.0155128,-6.20044 l 0.097861,-0.45775 h 3.3026446 3.3026443 l 0.09325,0.45775 c 0.08934,0.43856 1.739913,10.80734 2.775604,17.43614 0.476518,3.04989 2.390025,15.07645 2.576207,16.1917 l 0.09098,0.54494 -2.873364,-0.0456 -2.873361,-0.0456 -0.378284,-2.91121 c -0.208059,-1.60118 -0.414516,-3.00564 -0.458798,-3.12103 -0.05948,-0.15499 -0.690846,-0.20981 -2.4161046,-0.20981 -1.2845747,0 -2.3355899,0.0195 -2.3355899,0.0433 0,0.0238 -0.1862567,1.35336 -0.4139044,2.95457 -0.2276452,1.60121 -0.414906,3.00492 -0.4161361,3.11935 -0.00172,0.15796 -0.663696,0.20807 -2.748738,0.20807 -2.30831587,0 -2.74650512,-0.0391 -2.74650512,-0.24525 z M 10.786168,65.279555 c -0.05892,-0.67778 -1.3054521,-11.00317 -1.4770051,-12.23442 l -0.1159555,-0.83228 -0.1281256,0.9155 c -0.2470443,1.76523 -1.640591,12.53805 -1.640591,12.68261 0,0.0803 0.7677737,0.12471 1.7061625,0.0986 l 1.7061607,-0.0474 z m 9.288884,-5.3221 v -17.31575 h 2.734692 2.734694 l 0.249217,0.87389 c 0.472933,1.65836 1.923098,7.21655 3.354058,12.85545 0.789455,3.11096 1.468016,5.68892 1.50791,5.72882 0.0399,0.0399 0.07254,-4.32187 0.07254,-9.69281 v -9.76535 h 2.496822 2.496822 v 17.3113 17.3113 h -2.663276 c -1.464803,0 -2.663278,-0.0248 -2.663278,-0.0551 0,-0.0303 -0.854366,-3.19505 -1.898591,-7.03271 -1.044227,-3.83767 -2.214878,-8.21351 -2.601449,-9.72409 -0.386571,-1.51058 -0.749405,-2.79897 -0.8063,-2.8631 -0.0569,-0.0641 -0.103446,4.3178 -0.103446,9.73761 v 9.8542 l -2.455209,0.0461 -2.455208,0.0461 z m 25.134677,-0.004 v -17.3113 h 2.746504 2.746504 v 17.3113 17.3113 h -2.746504 -2.746504 z m 8.655651,0 v -17.3113 h 2.797833 2.797833 l 0.257913,1.04034 c 0.141851,0.57219 1.014316,3.88691 1.938809,7.36604 0.924494,3.47914 1.942159,7.37418 2.261477,8.65565 l 0.580581,2.32995 0.0093,-9.69599 0.0093,-9.69599 h 2.496823 2.496823 v 17.31552 17.31553 l -2.609671,-0.0459 -2.60967,-0.0458 -0.804764,-2.99618 c -0.442625,-1.64791 -1.32301,-4.90626 -1.956417,-7.24079 -0.633405,-2.33453 -1.475134,-5.48052 -1.870506,-6.9911 l -0.718858,-2.7465 -0.04292,10.0289 -0.04292,10.0289 H 56.36089 53.865369 Z m 22.471399,2.66329 v -14.64804 h -2.330367 -2.330367 v -2.66328 -2.66327 h 7.407238 c 4.073982,0 7.463418,-1.6e-4 7.532082,-3.3e-4 0.06866,-1.7e-4 0.145423,1.19827 0.170577,2.66327 l 0.04574,2.66361 h -2.41772 -2.417717 v 14.64803 14.64802 h -2.829732 -2.829732 z m 12.484112,-2.66329 v -17.3113 h 6.325282 6.325287 v 2.6599 2.6599 l -3.453941,0.045 -3.453937,0.045 -0.03807,3.49555 c -0.02094,1.92255 0.0075,3.92625 0.06311,4.45266 l 0.101176,0.95712 h 2.641778 2.641777 v 2.67473 2.67473 l -2.644789,-0.0531 -2.644791,-0.0531 -0.107105,1.74778 c -0.05891,0.96127 -0.06723,3.05482 -0.01849,4.65232 0.04875,1.59751 0.08862,3.00197 0.08862,3.12103 0,0.17079 0.737686,0.21648 3.495551,0.21648 h 3.495551 v 2.66327 2.66328 h -6.40851 -6.40851 z m 15.480299,-0.0107 v -17.32201 l 5.21096,0.0523 5.21096,0.0523 1.27457,0.63023 c 1.52578,0.75445 2.30001,1.61232 2.92518,3.24118 0.41586,1.08351 0.43279,1.27036 0.49071,5.41453 0.0368,2.63391 -0.008,4.61014 -0.11645,5.11495 -0.27173,1.26702 -0.84306,2.3373 -1.69064,3.16707 l -0.77225,0.75602 0.77461,0.84242 c 1.18792,1.29192 1.32752,1.90742 1.59903,7.05023 0.2121,4.01763 0.42012,5.66991 0.99019,7.86499 l 0.11888,0.45776 h -2.84133 -2.84133 l -0.24689,-0.83145 c -0.42588,-1.43411 -0.60323,-3.27621 -0.73724,-7.65782 -0.1073,-3.5083 -0.17919,-4.33795 -0.41439,-4.78276 -0.40116,-0.75868 -1.09211,-1.06982 -2.24214,-1.00963 l -0.94974,0.0497 -0.0434,7.11594 -0.0434,7.11594 h -2.82795 -2.82794 z m 8.63151,-2.0575 c 0.832,-0.43024 0.9281,-0.87648 0.98845,-4.58999 0.0616,-3.78782 -0.0528,-4.46784 -0.85128,-5.06098 -0.38105,-0.28306 -0.71049,-0.3488 -1.74777,-0.3488 h -1.27822 l -0.0442,4.90849 c -0.0243,2.69967 -0.008,5.00299 0.0364,5.11849 0.11451,0.2984 2.30679,0.2778 2.89662,-0.0272 z m 9.67852,2.07213 v -17.31523 h 6.40851 6.4085 v 2.66328 2.66327 h -3.49554 -3.49556 v 4.57751 4.57751 h 2.74651 2.7465 v 2.66327 2.66328 h -2.74477 -2.74476 l -0.0433,7.36563 -0.0433,7.36562 -2.87135,0.0455 -2.87134,0.0455 z m 12.53937,16.93278 c 0.0502,-0.20599 0.51207,-2.95873 1.02627,-6.11722 1.05536,-6.48247 2.26779,-13.85163 3.67384,-22.32968 l 0.95649,-5.76744 1.18059,-0.0585 c 0.64933,-0.0322 2.1514,-0.021 3.33793,0.0247 l 2.15733,0.0832 0.69832,4.32783 c 0.74393,4.6104 2.78298,17.36698 3.89788,24.38563 0.37083,2.33453 0.71921,4.60221 0.77416,5.03929 l 0.0999,0.79469 -2.89232,-0.0456 -2.89232,-0.0456 -0.36957,-2.91296 c -0.20327,-1.60213 -0.373,-3.00659 -0.3772,-3.12103 -0.006,-0.1565 -0.6039,-0.20806 -2.4137,-0.20806 h -2.40604 l -0.0948,0.54097 c -0.11416,0.65187 -0.75259,5.43625 -0.75259,5.64027 0,0.0792 -1.2815,0.14404 -2.84777,0.14404 h -2.84779 z m 10.54267,-11.56861 c -0.11772,-0.75237 -1.21509,-9.90049 -1.41259,-11.77668 -0.0771,-0.7324 -0.18114,-1.21928 -0.2312,-1.08195 -0.0501,0.13732 -0.44235,2.9837 -0.87176,6.32528 -0.42942,3.34158 -0.8215,6.31904 -0.87131,6.61658 l -0.0906,0.54098 h 1.78758 1.78757 z m 27.52022,-5.36817 v -17.3113 H 191.60674 210 v 2.91296 2.91296 h -15.39708 -15.39707 v 4.2446 4.24459 h 14.98094 14.98094 v 2.91207 2.91207 l -14.93932,0.0425 -14.93933,0.0425 v 4.2446 4.2446 l 15.35546,0.0425 15.35546,0.0425 v 2.9121 2.91209 H 191.60674 173.21348 Z M 49.371099,35.598335 c -2.612039,-0.75384 -4.133877,-2.47316 -4.742144,-5.35751 -0.144383,-0.68466 -0.246911,-2.07476 -0.248611,-3.37071 l -0.0029,-2.20553 h 2.474349 2.474349 l 0.07968,2.03907 c 0.08172,2.0914 0.35551,3.04632 1.035152,3.61037 0.372085,0.30881 1.639643,0.41898 2.084044,0.18114 0.841189,-0.45019 1.288127,-2.35143 1.032544,-4.39236 -0.263611,-2.10506 -0.811496,-3.00552 -3.619723,-5.94911 -4.305329,-4.51285 -5.394627,-6.78028 -5.389789,-11.2190905 0.0042,-3.78105 1.25994,-6.4597095 3.605827,-7.6912194 1.380171,-0.72454002 2.485611,-0.94038002 4.275817,-0.83486002 2.009794,0.11846 2.907986,0.45907 4.085561,1.54928992 1.65389,1.5312095 2.248014,3.5312995 2.146609,7.2264695 l -0.05253,1.9142305 -2.455209,0.0461 -2.455209,0.0461 V 9.7941145 c 0,-2.65433 -0.434703,-3.87633 -1.474812,-4.14585 -1.633252,-0.42322 -2.712321,1.84813 -2.19962,4.6300205 0.304126,1.65018 0.845167,2.49052 3.260943,5.0649 2.508953,2.67368 3.651768,4.10515 4.410088,5.52398 1.812057,3.39041 1.690429,9.81295 -0.233606,12.33553 -0.678127,0.88909 -1.864152,1.78626 -2.883143,2.18095 -1.0298,0.39889 -4.127106,0.52662 -5.207675,0.21476 z m 31.358864,-0.006 c -2.596282,-0.66087 -4.219112,-2.41263 -4.80726,-5.18921 -0.14754,-0.69652 -0.247119,-2.077 -0.248854,-3.44991 l -0.0029,-2.28875 h 2.496822 2.496823 v 1.57313 c 0,0.86521 0.08485,1.96877 0.188558,2.45234 0.353604,1.6488 1.64879,2.40255 2.961716,1.72361 0.885137,-0.45772 1.338533,-2.46086 1.018694,-4.50067 -0.303927,-1.93834 -0.902789,-2.91404 -3.432821,-5.59293 -3.406169,-3.60657 -4.497169,-5.22212 -5.169264,-7.65464 -0.375718,-1.35985 -0.424639,-5.4402005 -0.08164,-6.8102405 0.589509,-2.35474 1.710999,-3.8268795 3.642861,-4.7818494 1.25816,-0.62195002 1.289366,-0.62790002 3.276609,-0.62547002 2.593036,0.003 3.568539,0.34615 4.937762,1.73608992 1.495535,1.5181595 2.051388,3.5907095 1.944431,7.2500095 l -0.04866,1.6645505 -2.432181,0.0459 -2.432183,0.0459 -0.08345,-1.9601605 c -0.100305,-2.35505 -0.358836,-3.1129 -1.17885,-3.45552 -1.763743,-0.73694 -2.925191,1.3243 -2.443881,4.3371805 0.278508,1.74339 0.93978,2.7825 3.614311,5.67943 3.032433,3.28458 3.962749,4.63084 4.718958,6.82881 0.414069,1.20351 0.700094,3.99306 0.566717,5.5271 -0.327724,3.76935 -1.423551,5.75013 -3.842546,6.94566 -1.170193,0.57834 -1.358864,0.61985 -3.028811,0.66637 -1.081302,0.0301 -2.114839,-0.0354 -2.631022,-0.16679 z m 41.348217,-0.0867 c -2.49999,-0.82596 -3.92873,-2.34471 -4.75809,-5.05786 -0.38505,-1.25966 -0.51063,-21.5404505 -0.14644,-23.6508305 0.33165,-1.92183 0.94834,-3.13562 2.26229,-4.4526595 1.5606,-1.56428992 2.42717,-1.88112992 5.17273,-1.89129992 2.35444,-0.009 2.85534,0.11739 4.30136,1.08300992 1.11201,0.74257 2.22352,2.2035195 2.69323,3.5399195 0.64174,1.82588 0.68077,2.6824 0.62709,13.7626205 -0.0513,10.58747 -0.0571,10.75151 -0.42206,11.8303 -0.7768,2.29643 -2.20992,3.88856 -4.20342,4.66982 -1.31894,0.5169 -4.20376,0.60406 -5.52669,0.16698 z m 3.49763,-5.18598 c 1.14231,-0.69645 1.11356,-0.38065 1.11356,-12.23017 0,-10.3201905 -0.01,-10.6739105 -0.33292,-11.3189205 -0.22219,-0.44439 -0.54971,-0.77166 -0.98481,-0.98406 -0.59198,-0.28898 -0.71388,-0.29663 -1.32621,-0.0832 -0.85388,0.29759 -1.37933,1.05957 -1.51659,2.19925 -0.0573,0.47602 -0.081,5.3972205 -0.0525,10.9360105 0.0471,9.17306 0.0773,10.11741 0.33965,10.59679 0.64828,1.18475 1.70939,1.52476 2.75984,0.88432 z M 5.5823723,35.308425 c -0.091269,-0.055 -0.1707355,-5.95883 -0.1960319,-14.56479 L 5.3437934,6.2713145 3.0550399,6.2250145 0.76628647,6.1786945 V 3.6033445 1.0279951 H 8.1735245 15.580764 v 2.5800494 2.58005 H 13.250396 10.92003 v 14.5492605 14.54926 l -1.5397078,0.11161 c -1.6004411,0.116 -3.5321877,0.0703 -3.7979573,-0.0898 z m 12.5368357,0.0582 -0.374523,-0.0721 V 18.161255 1.0279951 h 2.746504 2.746504 v 7.0743194 7.0743305 h 1.391634 c 0.765397,0 1.739158,0.0476 2.163913,0.10586 l 0.772279,0.10585 V 8.2081745 1.0279951 h 2.746504 2.746505 v 17.1233399 17.12335 l -0.957115,0.0782 c -0.526414,0.043 -1.743616,0.0714 -2.704891,0.0631 l -1.747776,-0.0151 -0.04333,-7.44886 -0.04332,-7.44885 h -2.162201 -2.162198 v 7.38405 7.38406 l -0.873888,0.10497 c -0.945274,0.11353 -3.636847,0.10744 -4.244597,-0.01 z m 18.559712,0.003 c -0.275045,-0.0719 -0.291296,-1.03193 -0.291296,-17.20876 V 1.0282251 h 2.746504 2.746505 v 17.1240299 17.12404 l -0.520172,0.10404 c -0.581118,0.11622 -4.227741,0.10788 -4.681541,-0.0107 z m 30.965884,-6.26176 c -0.01998,-3.49651 -0.03285,-7.03143 -0.0286,-7.85538 0.0042,-0.82395 0.02059,-5.74894 0.03632,-10.94441 l 0.0286,-9.44630992 h 2.746504 2.746505 V 18.089835 35.317915 l -0.540978,0.0215 c -0.297539,0.0118 -1.533465,0.0449 -2.746505,0.0736 l -2.205526,0.0522 z m 31.107891,6.26553 c -0.06104,-0.061 -0.110972,-7.85111 -0.110972,-17.3113 V 0.86176508 h 2.735287 c 2.46008,0 2.74427,0.0293 2.82451,0.29130002 0.2002,0.6535999 1.81813,6.7479094 2.26477,8.5308094 1.54815,6.1798405 2.63755,10.3511405 2.72661,10.4402005 0.0561,0.0561 0.10194,-4.25702 0.10194,-9.58464 V 0.85286508 l 2.45521,0.0461 2.4552,0.0461 V 18.130435 35.315815 l -2.51085,0.093 c -1.9543,0.0724 -2.54697,0.0449 -2.67377,-0.12376 -0.0896,-0.11921 -0.35891,-0.92834 -0.59845,-1.79806 -1.11837,-4.06055 -3.97275,-14.7224 -4.30035,-16.06289 -0.20135,-0.82395 -0.41191,-1.55055 -0.46789,-1.61467 -0.056,-0.0641 -0.0791,4.27346 -0.0513,9.63905 0.0408,7.87946 0.009,9.78209 -0.16645,9.89324 -0.25769,0.16345 -4.522906,0.19236 -4.683515,0.0318 z m 39.298115,-14.52723 -0.0425,-14.5746205 -2.28875,-0.0463 -2.28876,-0.0463 v -2.65858 -2.65857942 h 7.40724 7.40724 v 2.66327942 2.66328 h -2.32945 -2.32946 l -0.0425,14.6064105 -0.0425,14.60641 -2.70399,0.01 -2.70398,0.01 -0.0425,-14.57462 z"
       id="path337" /></g></svg>
