<?xml version="1.0" encoding="UTF-8" standalone="no"?>
<!-- Created with Inkscape (http://www.inkscape.org/) -->

<svg
   width="210mm"
   height="175mm"
   viewBox="0 0 210 175"
   version="1.1"
   id="svg5"
   xml:space="preserve"
   inkscape:version="1.2.2 (b0a8486541, 2022-12-01)"
   sodipodi:docname="clay-is-smart.svg"
   xmlns:inkscape="http://www.inkscape.org/namespaces/inkscape"
   xmlns:sodipodi="http://sodipodi.sourceforge.net/DTD/sodipodi-0.dtd"
   xmlns="http://www.w3.org/2000/svg"
   xmlns:svg="http://www.w3.org/2000/svg"><sodipodi:namedview
     id="namedview7"
     pagecolor="#ffffff"
     bordercolor="#000000"
     borderopacity="0.25"
     inkscape:showpageshadow="2"
     inkscape:pageopacity="0.0"
     inkscape:pagecheckerboard="0"
     inkscape:deskcolor="#d1d1d1"
     inkscape:document-units="mm"
     showgrid="false"
     inkscape:zoom="0.77326038"
     inkscape:cx="294.20879"
     inkscape:cy="322.65975"
     inkscape:window-width="1854"
     inkscape:window-height="1011"
     inkscape:window-x="66"
     inkscape:window-y="32"
     inkscape:window-maximized="1"
     inkscape:current-layer="layer1" /><defs
     id="defs2" /><g
     inkscape:label="Camada 1"
     inkscape:groupmode="layer"
     id="layer1"><path
       style="fill:#000000;stroke-width:0.169781"
       d="m 0.19166139,155.18326 0.0431683,-19.40138 4.31796221,-0.0454 c 2.3748775,-0.025 4.3780495,0.0147 4.4514924,0.0882 0.073441,0.0734 0.2915837,0.93431 0.4847517,1.91303 0.4106039,2.08036 3.411671,18.0245 3.827933,20.33712 0.156366,0.86872 0.307182,1.55633 0.335147,1.52804 0.05716,-0.0579 1.25011,-6.87498 2.890911,-16.52026 0.603642,-3.54844 1.141101,-6.66181 1.194354,-6.91861 l 0.09682,-0.46689 h 4.570613 4.570613 v 19.44373 19.44374 l -3.183405,-0.0462 -3.183404,-0.0462 v -12.76216 c 0,-7.0191 -0.02262,-12.73934 -0.05026,-12.71164 -0.02765,0.0276 -0.239304,1.18649 -0.470354,2.57511 -0.23105,1.38862 -0.759794,4.35841 -1.174984,6.59953 -0.415192,2.24111 -1.216733,6.6724 -1.781204,9.84732 -0.564472,3.17491 -1.065614,5.94657 -1.113651,6.15922 -0.08649,0.38285 -0.110899,0.38618 -2.495907,0.33957 l -2.408566,-0.0471 -1.1460146,-6.28192 c -2.7218359,-14.91988 -3.3670025,-18.52336 -3.3665345,-18.8033 3.396e-4,-0.16342 -0.056801,-0.29713 -0.1268381,-0.29713 -0.070036,0 -0.1273371,5.71102 -0.1273371,12.69117 v 12.69118 l -3.0992328,0.0463 -3.09923381,0.0463 z m 28.99177061,19.0966 c 5.1e-4,-0.16341 0.72675,-4.57561 1.613964,-9.80489 0.887214,-5.22926 2.299305,-13.67166 3.137978,-18.76086 0.838674,-5.08921 1.565478,-9.42501 1.61512,-9.63511 l 0.09026,-0.382 h 4.146395 c 2.289503,0 4.1889,0.0688 4.24131,0.15358 0.0522,0.0845 1.166663,6.59771 2.476572,14.47388 2.054593,12.35375 3.07205,18.44345 3.740029,22.38492 0.08704,0.51359 0.158697,1.14389 0.159239,1.4007 l 9.96e-4,0.4669 H 47.09455 c -1.820907,0 -3.310741,-0.0679 -3.310741,-0.1508 0,-0.16175 -0.792953,-5.84708 -0.944473,-6.77169 l -0.09105,-0.55567 -3.000151,0.0463 -3.00015,0.0463 -0.192068,1.18847 c -0.105638,0.65366 -0.36502,2.31539 -0.5764,3.69276 l -0.384334,2.50427 h -3.20629 c -2.940745,0 -3.20622,-0.0246 -3.205442,-0.29711 z m 12.810353,-13.41275 c -0.08656,-0.48277 -1.833225,-13.53733 -2.072866,-15.49257 l -0.13526,-1.10358 -0.380143,2.8863 c -0.209077,1.58745 -0.678538,5.02552 -1.043247,7.64016 -0.36471,2.61464 -0.714664,5.15499 -0.777679,5.64524 l -0.114572,0.89135 h 2.303739 2.303738 z m 12.656037,-2.58916 V 141.97891 H 51.848426 49.04703 v -3.14095 -3.14096 h 9.083314 9.08331 v 3.14096 3.14095 H 64.327372 61.44109 v 16.29904 16.29903 h -3.395639 -3.395629 z m 15.280339,-3.14096 v -19.44116 l 24.236323,0.043 24.236326,0.043 v 3.22584 3.22587 l -20.586021,0.0431 -20.586016,0.0431 v 4.66761 4.66763 l 20.246456,0.0431 20.246451,0.0431 0.046,3.35318 0.046,3.35319 H 97.523255 77.230773 v 4.7532 4.75321 l 20.586016,0.0431 20.586021,0.0431 v 3.22584 3.22585 l -24.236326,0.043 -24.236323,0.043 z m 51.994889,0.046 0.0432,-19.40113 5.60278,0.006 c 4.85085,0.005 5.75091,0.0464 6.70637,0.30983 3.03595,0.83703 4.96507,2.80475 5.85996,5.9772 0.37844,1.34159 0.54189,6.65203 0.26337,8.55683 -0.38867,2.65814 -1.41736,4.66579 -2.90345,5.66659 l -0.80602,0.54281 0.41531,0.50639 c 1.01202,1.23393 1.31497,2.22156 2.08235,6.7883 0.28244,1.68084 0.82078,4.5841 1.19631,6.45169 0.37552,1.8676 0.68292,3.53095 0.6831,3.69633 3.5e-4,0.27918 -0.23985,0.29744 -3.35286,0.25468 l -3.35317,-0.046 -0.30041,-1.18847 c -0.3439,-1.36057 -1.3366,-7.17094 -1.7404,-10.18689 -0.35129,-2.6237 -0.53974,-3.23759 -1.15201,-3.75278 -0.43095,-0.36263 -0.64237,-0.41491 -1.50386,-0.37196 l -1.00241,0.05 -0.0368,7.72505 -0.0368,7.72507 -3.35391,0.0461 -3.35391,0.046 0.0432,-19.40113 z m 10.67185,-2.55256 c 1.12434,-0.74888 1.25603,-1.29601 1.25603,-5.21854 0,-3.04996 -0.039,-3.55896 -0.3152,-4.11453 -0.51727,-1.04048 -1.26936,-1.3834 -3.20443,-1.46114 l -1.6587,-0.0667 v 5.62253 5.62255 h 1.67271 c 1.45442,0 1.74798,-0.0501 2.24959,-0.38426 z m 11.0602,2.55256 0.0432,-19.40113 h 3.31073 3.31075 v 19.35509 19.35509 l -3.35392,0.046 -3.3539,0.046 z m 8.78692,19.13705 c 0,-0.14129 0.3087,-1.95583 0.68601,-4.03231 0.37732,-2.07648 1.7589,-10.15496 3.07019,-17.95218 1.3113,-7.79723 2.47566,-14.71157 2.58749,-15.36523 l 0.20329,-1.18846 h 4.15445 4.15445 l 1.88319,11.29046 c 2.25641,13.52831 4.49814,27.19961 4.48971,27.38095 -0.003,0.0721 -1.47682,0.11026 -3.27439,0.0849 l -3.26829,-0.0461 -0.52111,-3.6503 -0.52109,-3.6503 -2.99766,-0.0463 c -2.99666,-0.0463 -2.99767,-0.0462 -3.08218,0.33956 -0.0465,0.21226 -0.27869,1.68474 -0.51601,3.27219 -0.23731,1.58748 -0.47463,3.0964 -0.52739,3.3532 l -0.0959,0.46689 h -3.21237 c -2.75457,0 -3.21235,-0.0366 -3.21235,-0.25689 z m 12.90338,-13.11339 c -2e-5,-0.07 -0.26464,-2.1138 -0.58804,-4.54167 -0.32342,-2.42787 -0.78776,-5.94235 -1.03187,-7.80994 -0.24411,-1.86761 -0.48702,-3.58664 -0.53981,-3.8201 -0.1026,-0.45387 -0.21649,0.29613 -1.48259,9.76245 -0.42464,3.17491 -0.81171,5.94447 -0.86017,6.15459 -0.0881,0.38164 -0.086,0.38199 2.20719,0.38199 1.26242,0 2.29529,-0.0572 2.29529,-0.12732 z m 10.5682,-6.02726 0.0432,-19.39753 3.35319,-0.046 3.35318,-0.046 v 16.47241 16.47239 h 4.07477 4.07476 v 2.97119 2.97117 h -7.47111 -7.47111 z M 121.512,129.50504 c -3.06512,-0.8442 -5.03605,-3.20765 -5.65083,-6.77619 -0.38783,-2.25124 -0.38452,-23.609308 0.004,-25.537045 0.92585,-4.594233 4.17775,-7.160223 9.07427,-7.160223 3.74623,0 6.76581,1.640335 8.11519,4.408425 0.8906,1.826951 1.10181,2.976115 1.12087,6.098433 l 0.017,2.78768 -3.14095,0.0137 -3.14097,0.0137 -0.0932,-2.63161 c -0.0996,-2.814269 -0.2178,-3.257195 -1.08462,-4.067056 -0.66695,-0.623127 -2.32876,-0.702095 -3.14242,-0.149332 -0.32179,0.218601 -0.742,0.664603 -0.9338,0.991119 -0.34283,0.583584 -0.34874,0.795243 -0.34874,12.478359 v 11.88473 l 0.4098,0.71542 c 0.47987,0.83772 1.20625,1.23706 2.25011,1.23706 1.07096,0 1.84492,-0.48046 2.34864,-1.45801 0.40573,-0.78741 0.42697,-0.97898 0.48164,-4.34475 l 0.0571,-3.52102 -1.41544,-0.0494 -1.41544,-0.0495 v -2.71651 -2.71651 h 4.66899 4.669 l 0.0536,5.26324 c 0.0296,2.89477 0.002,7.49797 -0.0618,10.22933 l -0.11549,4.96611 -1.21148,-0.003 c -1.78571,-0.003 -1.83001,-0.029 -2.38364,-1.37456 l -0.48904,-1.18865 -0.49823,0.60444 c -0.69268,0.84035 -1.75852,1.5365 -2.98518,1.94971 -1.21874,0.41058 -3.8487,0.46226 -5.15892,0.10138 z M 0.22186028,129.25942 C 0.18229682,129.22051 0.149933,120.49161 0.149933,109.86187 V 90.535064 h 3.3107406 3.3107405 v 19.355096 19.35512 l -0.3820091,0.0283 c -0.8582069,0.0634 -6.10090021,0.0515 -6.16754771,-0.0141 z m 10.18406072,-0.0806 c -0.03939,-0.10353 -0.05195,-8.82163 -0.02792,-19.37355 l 0.04372,-19.185324 3.353186,-0.04601 c 1.844253,-0.0254 3.353187,-0.003 3.353187,0.04949 0,0.05258 0.413469,1.563121 0.918821,3.356782 0.505353,1.793661 1.805888,6.431872 2.890077,10.307152 1.084192,3.87525 2.03658,7.19874 2.116422,7.38549 0.08172,0.19117 0.120592,-4.03779 0.08892,-9.67755 -0.03092,-5.509419 -0.01288,-10.34183 0.04011,-10.738699 l 0.09634,-0.721563 h 2.951899 2.9519 v 19.336702 19.33668 l -0.413164,0.10371 c -0.535376,0.13437 -5.441829,0.0955 -5.644935,-0.0447 -0.161792,-0.11169 -0.29493,-0.55777 -2.692398,-9.0206 -0.806846,-2.84808 -1.837016,-6.40075 -2.289268,-7.89484 -0.45225,-1.49407 -1.003318,-3.3911 -1.224591,-4.21558 l -0.402315,-1.4991 0.009,11.34642 0.009,11.34642 -3.028156,0.0185 c -2.076114,0.0126 -3.050675,-0.0408 -3.099781,-0.16979 z m 26.969475,0.11651 -0.381156,-0.0735 -0.0433,-16.24489 -0.04329,-16.24489 -2.758951,-0.0467 -2.75895,-0.04671 V 93.586774 90.53491 h 8.913531 8.913533 v 3.051864 3.051866 l -2.758949,0.04671 -2.758952,0.0467 -0.0433,16.23104 -0.04329,16.23104 -1.654522,0.10956 c -1.762427,0.1167 -3.95419,0.1127 -4.582404,-0.008 z m 14.126872,-0.0925 c -0.04445,-0.11673 -0.06116,-8.84563 -0.03711,-19.39755 l 0.04371,-19.185323 7.512842,-0.04422 7.51283,-0.04422 v 3.05783 3.05784 H 62.374893 58.21525 v 4.920003 4.92 l 3.268294,0.0461 3.268295,0.0461 0.04641,3.01362 0.04641,3.01362 H 61.52758 58.210502 l 0.04491,5.30567 0.04491,5.30568 h 2.207161 c 1.21393,0 3.085772,0.019 4.159642,0.0422 l 1.952492,0.0422 -0.04989,2.95038 -0.04989,2.95037 -0.629272,0.10404 c -0.346103,0.0572 -3.706849,0.10486 -7.468316,0.1059 -5.316331,9.9e-4 -6.857038,-0.0455 -6.91987,-0.21036 z m 17.827678,0.001 c -0.04481,-0.11753 -0.06174,-8.84716 -0.03774,-19.39908 l 0.04371,-19.185321 3.352331,-0.04601 3.35234,-0.04601 0.04331,16.345081 0.04332,16.34505 h 4.329428 4.329428 l 0.04641,3.01363 0.04641,3.01363 -0.385935,0.0115 c -0.212257,0.006 -3.692419,0.0453 -7.73369,0.0865 -5.806501,0.0593 -7.364853,0.0302 -7.429212,-0.13885 z m 18.158305,-0.0217 c -0.04023,-0.1056 -0.05347,-8.82546 -0.02938,-19.37738 l 0.04371,-19.185321 3.352331,-0.04601 3.35234,-0.04601 0.04332,16.345081 0.04331,16.34506 3.904984,0.0195 c 2.147734,0.0108 4.076884,0.0298 4.286974,0.0424 0.38074,0.0229 0.38201,0.033 0.38201,2.99416 v 2.97117 l -2.67405,0.0201 c -1.47074,0.0111 -4.914685,0.0401 -7.653209,0.0648 -3.586166,0.0323 -4.999607,-0.009 -5.052276,-0.14741 z m 18.308269,0.12883 c -0.16798,-0.0748 -0.21222,-4.12629 -0.21222,-19.43546 V 90.534545 h 3.28619 3.28619 l 0.10824,1.146027 c 0.0595,0.630317 0.10878,9.340118 0.10943,19.355098 l 9.9e-4,18.20908 h -2.43813 c -1.34097,0 -2.7735,0.0362 -3.1834,0.0804 -0.4099,0.0442 -0.84078,0.0378 -0.95749,-0.0141 z m 31.95589,-0.1058 c -0.0451,-0.1183 -0.0623,-8.84849 -0.0382,-19.40041 l 0.0437,-19.185321 h 15.02567 15.02567 v 3.14096 3.14096 l -11.41781,0.04361 -11.41783,0.04361 v 4.666571 4.66656 l 10.99337,0.0437 10.99334,0.0437 v 3.31074 3.31074 l -10.88555,0.0437 -10.88555,0.0437 -0.10481,0.76463 c -0.0576,0.42054 -0.0556,2.67988 0.005,5.02073 l 0.10944,4.25611 3.41054,-0.0288 c 1.87579,-0.0159 6.98232,-0.0219 11.34783,-0.0134 l 7.93728,0.0154 v 3.03265 3.03265 l -1.23092,0.10439 c -0.67699,0.0574 -7.44045,0.10742 -15.0299,0.11116 -10.98557,0.005 -13.81568,-0.0371 -13.88091,-0.20829 z m 33.29424,0.0795 c -0.0531,-0.053 -0.0964,-8.7935 -0.0964,-19.42324 V 90.534576 h 3.36009 3.36008 l 1.75323,6.069693 c 0.96428,3.33833 2.3746,8.236671 3.13406,10.885201 l 1.38083,4.8155 0.0437,-10.88519 0.0437,-10.885204 h 2.96993 2.96993 v 19.335164 19.33514 l -1.23092,0.0898 c -0.677,0.0494 -2.07134,0.0775 -3.09852,0.0624 l -1.8676,-0.0273 -0.31015,-0.93379 c -0.1706,-0.51358 -1.0346,-3.41684 -1.91999,-6.45169 -2.29047,-7.85096 -4.32453,-14.65239 -4.45201,-14.88648 -0.0599,-0.11021 -0.0875,4.83681 -0.0608,10.99336 l 0.0483,11.19373 -0.55758,0.0244 c -1.97468,0.0864 -5.38904,0.0961 -5.46972,0.0155 z m 26.79974,-0.0257 c -0.0389,-0.0389 -0.0707,-7.39258 -0.0707,-16.34149 V 96.646721 h -2.71651 -2.71651 V 93.590653 90.534585 H 201.17136 210 v 3.051757 3.051755 l -2.63355,0.04681 -2.63353,0.04681 v 16.256593 16.2566 l -1.4839,0.006 c -0.81611,0.003 -2.34977,0.0224 -3.4081,0.0424 -1.05833,0.0201 -1.95604,0.005 -1.99495,-0.0343 z M 16.766455,84.417302 C 13.790468,83.960176 11.57973,82.443889 10.492963,80.114472 9.7649219,78.553961 9.4879217,76.929667 9.4879217,74.221047 v -2.369766 l 3.0136223,0.04641 3.013624,0.04641 0.08775,2.292042 c 0.09662,2.523938 0.344072,3.323572 1.22849,3.969941 0.568494,0.415482 2.05885,0.478337 2.737917,0.115475 0.87636,-0.46829 1.196848,-1.270373 1.267221,-3.171452 0.07114,-1.921682 -0.19263,-3.165855 -0.949631,-4.479367 -0.242174,-0.420221 -2.092575,-2.44487 -4.112,-4.499223 C 13.439619,63.795826 11.881658,62.065548 11.494469,61.417625 9.2049647,57.58641 9.1356763,51.401103 11.346273,48.188106 c 1.552076,-2.255865 3.953148,-3.342651 7.394747,-3.347063 5.911885,-0.008 8.763218,3.430014 8.538991,10.294672 l -0.04991,1.528029 -3.075446,0.0462 -3.07545,0.0462 -0.0803,-2.084516 c -0.113081,-2.935416 -0.563428,-3.772831 -2.14288,-3.98468 -0.98247,-0.131774 -1.799738,0.319118 -2.244793,1.238488 -0.31579,0.652325 -0.354447,0.981429 -0.302276,2.573379 0.08901,2.715749 0.34518,3.151466 3.968168,6.749064 1.598661,1.587459 3.329978,3.362687 3.847371,3.944956 2.499293,2.812672 3.544352,6.050873 3.302106,10.231806 -0.338072,5.834703 -2.997354,8.662382 -8.515795,9.055029 -0.653659,0.0465 -1.618614,0.01852 -2.144345,-0.06224 z M 0.19166139,64.68585 0.23482969,45.288301 3.503125,45.24219 6.7714211,45.19608 V 64.639743 84.083397 H 3.4599596 0.14850004 Z M 35.534544,83.616493 c 0.05337,-0.256799 0.400084,-2.338747 0.770495,-4.626548 0.370414,-2.28781 1.701901,-10.386384 2.958864,-17.996844 1.256964,-7.610458 2.349524,-14.257412 2.427914,-14.771 l 0.142525,-0.9338 4.192333,-0.0454 4.192333,-0.0454 0.09127,0.554744 c 1.226633,7.455831 2.268193,13.924614 2.741011,17.023551 0.327694,2.14773 1.0093,6.426233 1.514683,9.507763 1.503726,9.16886 1.78167,10.944596 1.78167,11.382782 v 0.417034 h -3.22585 c -1.774217,0 -3.225524,-0.05726 -3.225124,-0.127334 0.0012,-0.21147 -0.856554,-6.380246 -0.944316,-6.791256 -0.08081,-0.378477 -0.109002,-0.382012 -3.049512,-0.382012 -1.632368,0 -2.967942,0.02917 -2.967942,0.06473 0,0.03565 -0.229206,1.64911 -0.509345,3.585549 -0.28014,1.936429 -0.509346,3.549929 -0.509346,3.585539 0,0.03565 -1.457702,0.06473 -3.239341,0.06473 H 35.437527 Z M 48.198122,70.979301 c 0,-0.110385 -0.228478,-1.924929 -0.50773,-4.032318 C 47.41114,64.839592 47.071481,62.274946 46.935597,61.24777 46.799711,60.220593 46.561439,58.195944 46.406105,56.748556 46.12397,54.119661 45.997276,53.4617 45.983833,54.555547 c -0.0039,0.319047 -0.525519,4.152353 -1.159105,8.518446 -0.633585,4.366094 -1.114254,7.97608 -1.068153,8.022176 0.04611,0.04611 1.064308,0.08385 2.262684,0.08385 1.563129,0 2.178863,-0.05676 2.178863,-0.200685 z M 75.716616,83.361814 C 75.160826,81.448926 71.70285,70.241148 70.858065,67.614583 69.944749,64.774945 67.289306,56.370875 64.956982,48.938608 64.35626,47.024315 63.894504,45.404751 63.930861,45.339555 c 0.03635,-0.06523 1.79614,-0.103385 3.910631,-0.08494 l 3.844529,0.03366 0.573366,1.8676 c 0.315353,1.027176 1.286794,4.27425 2.158774,7.21572 0.87197,2.94146 2.557656,8.480586 3.745954,12.309162 1.188299,3.828576 2.335719,7.558567 2.549818,8.288874 0.214099,0.730315 0.420958,1.359527 0.459685,1.398245 0.03874,0.03874 0.435557,-1.055408 0.881858,-2.431417 1.795215,-5.534895 6.108062,-18.760968 7.680893,-23.554731 l 1.671166,-5.093453 h 3.989867 c 2.568142,0 3.978416,0.06055 3.957733,0.169786 -0.01762,0.09341 -0.90998,2.652834 -1.982904,5.687681 -3.175386,8.981787 -4.720483,13.480094 -8.062307,23.472209 l -3.165616,9.465231 -5.109017,9e-5 -5.109027,1e-4 z M 102.2304,64.68585 l 0.0431,-19.397549 26.61326,-0.04292 26.61326,-0.04302 v 3.311273 3.311264 h -22.8384 -22.83839 l 0.0453,4.541665 0.0453,4.541654 22.45361,0.04312 22.45362,0.04312 v 3.479276 3.479277 l -22.45362,0.04312 -22.45361,0.04312 -0.0451,4.71144 -0.0451,4.71144 0.80915,-7.07e-4 c 0.44503,-3.38e-4 10.70318,0.01872 22.79587,0.04242 l 21.98671,0.04312 0.0461,3.268304 0.0461,3.268295 h -26.66021 -26.66009 l 0.0432,-19.397549 z m 57.08456,19.188916 c -0.0453,-0.1187 -0.0626,-8.849225 -0.0385,-19.401143 l 0.0437,-19.185322 5.68768,0.008 c 4.92936,0.007 5.84614,0.04919 6.87615,0.316428 3.32791,0.863575 5.41889,3.018456 6.11029,6.297017 0.34904,1.655114 0.34962,7.903077 0.002,9.382182 -0.45811,1.943031 -1.57109,3.748115 -2.85233,4.626029 l -0.5694,0.390158 0.56243,0.835793 c 0.81087,1.204928 1.17919,2.58024 1.93972,7.242756 0.57642,3.534006 1.34045,7.5101 1.77354,9.229792 l 0.11759,0.466905 h -3.48051 c -3.46825,0 -3.48085,-9.95e-4 -3.57501,-0.382012 -0.23993,-0.969888 -1.16161,-6.184828 -1.71795,-9.719999 -0.72365,-4.598267 -0.68825,-4.454871 -1.24639,-5.051002 -0.39393,-0.420749 -0.5513,-0.466894 -1.59215,-0.466894 h -1.15498 l -0.0441,7.767508 -0.0441,7.767507 -3.35714,0.04601 c -2.59327,0.03555 -3.37585,-0.003 -3.43935,-0.169785 z m 10.90179,-21.795835 c 0.26334,-0.196523 0.63159,-0.616733 0.81834,-0.933799 0.31117,-0.528267 0.33956,-0.881838 0.33956,-4.22679 0,-3.261085 -0.0348,-3.720491 -0.32666,-4.308526 -0.47661,-0.960289 -1.30435,-1.285848 -3.28119,-1.290539 l -1.57047,-0.004 v 5.618244 5.618253 l 1.77081,-0.05786 c 1.47826,-0.04829 1.84992,-0.116928 2.24961,-0.415203 z m 16.0138,14.622587 v -7.381881 l -1.8602,-6.172053 c -2.22683,-7.388632 -5.10084,-17.362086 -5.10084,-17.701149 0,-0.202945 0.57402,-0.243027 3.48051,-0.243027 1.9143,0 3.48053,0.03346 3.48053,0.07438 0,0.04093 0.271,1.244214 0.60225,2.674056 0.33122,1.429841 1.05768,4.728259 1.61436,7.329799 1.1542,5.394047 1.19751,5.579806 1.2815,5.495819 0.034,-0.03395 0.47811,-2.043041 0.98706,-4.464679 1.41523,-6.733808 2.30962,-10.807901 2.4074,-10.966134 0.12457,-0.201552 6.68996,-0.183778 6.68996,0.01812 0,0.08873 -0.4128,1.635855 -0.91732,3.43808 -0.50452,1.802214 -1.38606,4.957594 -1.95897,7.011948 -0.5729,2.054363 -1.69971,6.058519 -2.50404,8.898139 l -1.46235,5.16294 0.10778,2.854416 c 0.0593,1.569932 0.0586,4.766627 -0.002,7.103781 l -0.10906,4.249354 h -3.36844 -3.36844 z M 7.9211392,40.785065 C 4.2709971,40.347358 1.6635505,38.290747 0.53454723,34.95893 L 0.0650443,33.573374 0.01619888,21.37088 C -0.0260732,10.810086 0.00354216,8.9752507 0.2363503,7.7328308 1.0984339,3.1321873 3.9967085,0.66426946 8.8087971,0.43328165 13.880954,0.18981039 17.203113,2.4324305 18.414596,6.9176667 c 0.185399,0.6863991 0.304622,2.057093 0.365497,4.2020933 l 0.09035,3.183406 h -3.333004 -3.333005 v -2.850312 c 0,-2.6182344 -0.0311,-2.9119941 -0.382008,-3.6078593 C 11.325484,6.8595304 10.565088,6.4513743 9.3874795,6.5379938 8.3597899,6.6135855 7.6086284,7.0905242 7.2168086,7.9162259 6.9705341,8.4352126 6.9412035,9.7849388 6.9412035,20.599582 c 0,11.87327 0.00668,12.116255 0.3497689,12.825092 0.871027,1.799303 3.5685626,1.883006 4.4737186,0.138816 0.296145,-0.570661 0.350686,-1.069508 0.411322,-3.762084 l 0.06991,-3.104186 h 3.289998 3.289999 l -0.0058,2.928732 c -0.0087,4.26457 -0.443181,6.16633 -1.843339,8.067055 -1.694261,2.299975 -5.324328,3.539481 -9.0555081,3.092058 z M 22.182616,39.13372 c -0.02141,-0.723694 -0.04051,-9.624403 -0.04246,-19.779355 l -0.0035,-18.46354706 3.692748,-1.9915e-4 3.692751,-1.9817e-4 V 17.444123 33.997827 h 7.215716 7.215718 v 3.22585 3.22585 H 33.087562 22.221541 Z m 23.978127,1.155336 c 0,-0.09198 0.234102,-1.25862 0.520225,-2.592546 0.286124,-1.333925 0.741109,-3.494944 1.011081,-4.802263 0.269971,-1.307318 1.262121,-6.082425 2.204775,-10.611348 0.942654,-4.528923 2.283112,-11.058404 2.978796,-14.509958 0.695682,-3.4515519 1.308221,-6.4121182 1.361198,-6.5790357 0.08935,-0.28151416 0.425758,-0.30348468 4.646896,-0.30348468 h 4.550566 l 0.20219,1.06113478 c 0.111201,0.5836246 0.583454,2.8947753 1.049453,5.1358927 2.588973,12.4510639 3.670232,17.7418719 5.065839,24.7881089 0.850779,4.295474 1.58459,7.983324 1.630706,8.195222 l 0.08384,0.385266 -3.780468,-0.0457 -3.780469,-0.04571 -0.23056,-1.273362 C 63.54801,38.390921 63.236093,36.606129 62.981673,35.125062 l -0.462592,-2.692847 -3.717882,0.0277 c -2.588543,0.01928 -3.754479,0.08692 -3.83837,0.222647 -0.06627,0.107229 -0.400584,1.688557 -0.74292,3.514066 -0.342336,1.825508 -0.678471,3.510111 -0.746969,3.74356 l -0.12454,0.424455 -3.593825,0.04582 C 47.4775,40.439493 46.160751,40.395023 46.160751,40.28906 Z M 61.444834,25.975648 c 0.005,-0.463704 -2.367446,-15.047843 -2.505943,-15.407678 -0.05387,-0.140069 -0.169935,0.165537 -0.257835,0.679126 -0.08793,0.513589 -0.710509,4.087401 -1.38358,7.941806 -0.673075,3.854405 -1.187606,7.044175 -1.1434,7.088382 0.04421,0.04421 1.251867,0.08037 2.683691,0.08037 2.585438,0 2.603343,-0.0026 2.607067,-0.382007 z M 77.060988,32.95076 V 25.451994 L 75.770659,21.363169 C 75.060976,19.114314 74.338427,16.815932 74.164977,16.255654 73.991527,15.695373 72.888828,12.142695 71.714521,8.3608097 70.540223,4.5789251 69.538588,1.3509533 69.488679,1.1875391 c -0.08454,-0.27687369 0.170333,-0.29711848 3.740785,-0.29711848 2.10734,0 3.831524,0.045369 3.831524,0.10081965 0,0.0554466 0.757681,3.24522223 1.683733,7.08838103 0.926052,3.8431587 1.736781,7.2740677 1.801608,7.6242417 0.06483,0.350174 0.177264,0.636681 0.249858,0.636681 0.07259,0 0.183618,-0.286507 0.246711,-0.636681 0.143785,-0.797985 2.281448,-9.7470222 3.021384,-12.648599 l 0.551987,-2.16458747 3.692747,-1.2746e-4 c 2.964085,-1.0356e-4 3.692748,0.0445426 3.692748,0.22623583 0,0.1245 -0.679391,2.3210489 -1.509766,4.8812206 -0.830374,2.5601695 -2.051285,6.3356925 -2.71313,8.3900505 -0.661854,2.054357 -1.739698,5.372076 -2.395209,7.372708 l -1.191843,3.637514 v 7.525625 7.525624 h -3.565414 -3.565414 z"
       id="path248" /></g></svg>
